<svg width="44" height="56" viewBox="0 0 44 56" fill="none" xmlns="http://www.w3.org/2000/svg">
<g clip-path="url(#clip0_62_1258)">
<path d="M39.6515 12.4088C39.1676 12.4088 38.6838 12.3258 38.2126 12.1598C37.2322 11.8151 36.4045 11.1257 35.8888 10.2257C35.4559 9.47887 34.7746 8.90438 33.9661 8.62352L33.2148 8.36181C32.4062 8.07456 31.5213 8.09371 30.7127 8.41287C29.745 8.78948 28.6754 8.80863 27.6949 8.47032C26.4534 8.03626 25.4857 7.0724 25.0464 5.83405C24.6007 4.59571 24.7408 3.22331 25.4348 2.07433C26.3197 0.606193 28.0514 -0.210859 29.7513 0.0508529C31.0692 0.248733 32.2089 1.0211 32.8774 2.15732C33.1957 2.70627 33.7751 3.42758 34.7046 3.75312L35.6787 4.09782C36.6082 4.42336 37.5123 4.2191 38.1044 3.99568C39.3332 3.52333 40.702 3.63822 41.8607 4.30846C43.3442 5.1702 44.1909 6.89367 43.9681 8.5916C43.7898 9.91931 43.0513 11.0811 41.9308 11.7704C41.2368 12.1981 40.4537 12.4152 39.6579 12.4152L39.6515 12.4088ZM32.037 6.70855C32.5972 6.70855 33.1575 6.8043 33.6923 6.98941L34.4436 7.25113C35.5768 7.65327 36.5382 8.45117 37.1367 9.49802C37.4805 10.098 38.0344 10.5576 38.6838 10.7874C39.5114 11.0747 40.4155 10.9789 41.1604 10.5193C41.918 10.0534 42.4019 9.29376 42.5229 8.38734C42.6693 7.25751 42.109 6.1213 41.1286 5.54681C40.3518 5.0936 39.435 5.017 38.6137 5.32978C37.4423 5.7766 36.2581 5.82128 35.1948 5.44467L34.2207 5.09998C33.1575 4.72975 32.2598 3.95738 31.6231 2.87224C31.1775 2.11263 30.4135 1.60198 29.5285 1.46793C28.408 1.29558 27.2556 1.83816 26.6699 2.8084C26.1987 3.59354 26.1033 4.48719 26.4025 5.32978C26.7017 6.1596 27.3447 6.79792 28.1724 7.09155C28.8282 7.32134 29.5412 7.30858 30.1843 7.05325C30.7764 6.81707 31.4067 6.70217 32.0306 6.70217L32.037 6.70855Z" fill="#FF2614"/>
<path d="M39.6516 12.415C39.1677 12.415 38.6839 12.332 38.2127 12.166C35.9526 11.3745 34.762 8.88505 35.5515 6.619C35.9335 5.52109 36.7229 4.6402 37.7671 4.13593C38.8112 3.63166 39.9954 3.56782 41.0841 3.95082C42.1791 4.33381 43.0577 5.12533 43.5607 6.17218C44.0637 7.21903 44.1273 8.39992 43.7453 9.49784C43.3633 10.5957 42.5739 11.4766 41.5298 11.9809C40.9313 12.2682 40.2946 12.415 39.6516 12.415ZM39.6516 5.15086C39.225 5.15086 38.7985 5.24661 38.3974 5.43811C37.697 5.77642 37.175 6.36367 36.9203 7.09774C36.3919 8.61057 37.1877 10.2702 38.6966 10.8C39.4288 11.0553 40.2119 11.0107 40.9122 10.6787C41.6125 10.3404 42.1346 9.75316 42.3893 9.01909C42.9177 7.50627 42.1219 5.84663 40.613 5.31683C40.301 5.20831 39.9763 5.15086 39.6516 5.15086Z" fill="#FF2614"/>
<path d="M37.6652 7.3595C38.0472 6.26159 39.2505 5.68072 40.3519 6.06371C41.447 6.4467 42.0264 7.65313 41.6444 8.75743C41.2624 9.85534 40.0591 10.4362 38.9576 10.0532C37.8626 9.67023 37.2832 8.4638 37.6652 7.3595V7.3595ZM38.894 7.79356C38.7475 8.20847 38.9704 8.67445 39.3842 8.81488C39.8044 8.96169 40.2628 8.73828 40.4029 8.32337C40.5493 7.90846 40.3265 7.44248 39.9126 7.30205C39.4924 7.15524 39.034 7.37865 38.894 7.79356Z" fill="#FF2614"/>
<path d="M18.0367 10.0981C16.9162 10.0981 15.8339 9.66404 15.0189 8.86614C14.0767 7.94695 13.5992 6.65754 13.7201 5.31707C13.8729 3.60636 15.0699 2.11269 16.7061 1.59565C17.9794 1.1935 19.3419 1.37862 20.437 2.1063C20.9654 2.45738 21.7994 2.85314 22.7799 2.73186L23.8049 2.61058C24.779 2.49568 25.5048 1.91481 25.9378 1.44883C26.8291 0.49135 28.1088 -0.0129243 29.4394 0.082824C31.1521 0.204105 32.6673 1.37223 33.2085 2.99996C33.6351 4.27022 33.4759 5.63623 32.7692 6.75329C32.0625 7.87035 30.9165 8.59166 29.6113 8.75124C28.5799 8.87252 27.5358 8.62357 26.6763 8.0427C25.9632 7.55758 25.0974 7.34693 24.2442 7.44906L23.4548 7.54481C22.608 7.64694 21.8185 8.05547 21.2328 8.69379C20.5325 9.45978 19.5775 9.95128 18.5461 10.0726C18.3742 10.0917 18.2023 10.1045 18.0304 10.1045L18.0367 10.0981ZM18.0431 2.84038C17.7439 2.84038 17.4383 2.88506 17.139 2.98081C16.0567 3.3255 15.2609 4.3149 15.159 5.44473C15.0826 6.35753 15.3882 7.20012 16.0249 7.82567C16.6552 8.43846 17.521 8.73209 18.3869 8.62357C19.0745 8.54059 19.7112 8.21505 20.1823 7.70439C20.9972 6.81074 22.105 6.23625 23.302 6.09582L24.0914 6.00007C25.282 5.85964 26.498 6.15327 27.4976 6.82989C28.0706 7.21926 28.7709 7.38523 29.4522 7.30225C30.3244 7.20011 31.0884 6.71499 31.5595 5.96815C32.037 5.21493 32.1389 4.32128 31.846 3.45316C31.4831 2.3744 30.4772 1.59565 29.3439 1.51905C28.459 1.4616 27.5931 1.79353 26.9946 2.43185C26.1351 3.35103 25.091 3.91276 23.9768 4.0468L22.9518 4.16809C21.8313 4.30213 20.6916 4.00212 19.6411 3.30635C19.1636 2.99357 18.6097 2.82761 18.0495 2.82761L18.0431 2.84038Z" fill="#FF2614"/>
<path d="M29.0956 8.77712C28.1278 8.77712 27.1919 8.45157 26.4152 7.84517C25.5048 7.12386 24.9254 6.09616 24.7917 4.9408C24.6516 3.78544 24.9763 2.64923 25.6894 1.73004C26.4088 0.817242 27.4339 0.236368 28.5862 0.102321C29.7386 -0.0381101 30.8719 0.287434 31.7823 1.00235C32.6927 1.72366 33.2721 2.75136 33.4058 3.90672C33.6859 6.28766 31.986 8.46434 29.6049 8.7452C29.433 8.76435 29.2547 8.77712 29.0828 8.77712H29.0956ZM29.1083 1.5194C28.9937 1.5194 28.8791 1.52578 28.7581 1.53855C27.9878 1.62791 27.3002 2.01729 26.8227 2.62369C26.3452 3.23648 26.1287 3.99609 26.2242 4.76207C26.3197 5.52806 26.7017 6.22383 27.3065 6.70257C27.9114 7.18131 28.669 7.39834 29.4394 7.30259C31.0247 7.1111 32.1643 5.66849 31.9733 4.07268C31.8842 3.30031 31.4958 2.61093 30.891 2.13218C30.3753 1.72366 29.7513 1.50663 29.1019 1.50663L29.1083 1.5194Z" fill="#FF2614"/>
<path d="M27.0137 4.67259C26.8737 3.51723 27.7013 2.464 28.8537 2.32995C30.0061 2.18952 31.0566 3.01934 31.1903 4.1747C31.3303 5.33006 30.5027 6.3833 29.3503 6.51734C28.1979 6.65777 27.1474 5.82796 27.0137 4.67259ZM28.3062 4.5194C28.3571 4.95984 28.7582 5.27262 29.1975 5.22155C29.6368 5.17048 29.9488 4.76834 29.8978 4.3279C29.8469 3.88746 29.4458 3.57468 29.0065 3.62574C28.5672 3.67681 28.2552 4.07895 28.3062 4.5194Z" fill="#FF2614"/>
<path d="M8.85596 16.4876C8.44213 16.4876 8.0283 16.4302 7.61447 16.3089C6.35387 15.9323 5.3352 15.0131 4.8195 13.7748C4.16373 12.1917 4.533 10.3087 5.74267 9.08949C6.68493 8.13839 7.971 7.67242 9.28253 7.80647C9.91283 7.8703 10.836 7.832 11.6446 7.27666L12.4977 6.6894C13.3126 6.13406 13.6819 5.28509 13.8474 4.6723C14.1976 3.39566 15.0953 2.36158 16.3241 1.82539C17.8966 1.136 19.7812 1.46793 21.0163 2.65521C21.984 3.58077 22.4743 4.87018 22.366 6.18513C22.2578 7.50007 21.5766 8.68097 20.4942 9.42142C19.6347 10.0087 18.597 10.2704 17.5656 10.1555C16.7124 10.0597 15.8466 10.2768 15.1399 10.7619L14.4841 11.2151C13.7774 11.7002 13.2681 12.4279 13.0452 13.2641C12.7778 14.2727 12.1603 15.1472 11.3008 15.7344C10.5686 16.2387 9.71546 16.5004 8.8496 16.5004L8.85596 16.4876ZM6.7677 10.1044C5.9655 10.9151 5.7172 12.1598 6.1565 13.2131C6.50667 14.0556 7.1688 14.662 8.0283 14.9174C8.8687 15.1663 9.7664 15.0259 10.4922 14.528C11.0652 14.1322 11.479 13.5514 11.6509 12.8811C11.9629 11.7066 12.676 10.6853 13.6692 10.0087L14.3249 9.55547C15.3181 8.87246 16.5214 8.57245 17.7247 8.7065C18.4123 8.7831 19.1063 8.61075 19.6793 8.21499C20.3987 7.7171 20.8571 6.93196 20.9272 6.05746C20.9972 5.1702 20.6789 4.32761 20.0167 3.69567C19.2018 2.91053 17.9476 2.68712 16.9098 3.14671C16.0885 3.51056 15.4837 4.19995 15.2481 5.0553C14.917 6.26811 14.2485 7.25113 13.319 7.88945L12.4659 8.4767C11.5363 9.11503 10.384 9.38312 9.1361 9.25546C8.26387 9.16609 7.398 9.47887 6.7677 10.1172V10.1044Z" fill="#FF2614"/>
<path d="M18.0494 10.1684C16.6615 10.1684 15.299 9.50457 14.4586 8.27899C13.8028 7.32151 13.5609 6.15976 13.771 5.01716C13.9875 3.87457 14.6305 2.88517 15.5855 2.22131C17.5592 0.861686 20.2714 1.37234 21.6211 3.35114C22.9772 5.32994 22.4679 8.04919 20.4942 9.40244C19.7429 9.91948 18.8898 10.162 18.043 10.162L18.0494 10.1684ZM15.6555 7.45555C16.5596 8.77688 18.3677 9.11519 19.6856 8.20877C21.0035 7.30236 21.341 5.48952 20.4369 4.16819C19.5328 2.84687 17.7247 2.50856 16.4068 3.41497C15.7701 3.85542 15.3372 4.51289 15.1971 5.27888C15.0571 6.03848 15.2162 6.81085 15.6555 7.45555Z" fill="#FF2614"/>
<path d="M16.305 7.00884C15.6492 6.05135 15.8912 4.73003 16.8525 4.07256C17.8075 3.41508 19.1254 3.65765 19.7812 4.62151C20.437 5.579 20.195 6.90032 19.2337 7.55779C18.2787 8.21527 16.9608 7.9727 16.305 7.00884ZM17.381 6.26838C17.6293 6.63223 18.1322 6.72798 18.4951 6.47903C18.858 6.23008 18.9535 5.72581 18.7052 5.36197C18.4569 4.99812 17.954 4.90237 17.5911 5.15132C17.2282 5.40027 17.1327 5.90454 17.381 6.26838Z" fill="#FF2614"/>
<path d="M4.39306 26.7459C3.50172 26.7459 2.61039 26.465 1.85276 25.9289C0.452092 24.9395 -0.235508 23.1522 0.140125 21.4734C0.432992 20.1648 1.27339 19.0797 2.45759 18.4924C3.02422 18.2115 3.78822 17.6817 4.17659 16.7753L4.58406 15.8242C4.97242 14.9178 4.83872 14.005 4.65409 13.3922C4.27209 12.1283 4.48219 10.7687 5.23346 9.65802C6.19482 8.23456 7.96475 7.51326 9.64555 7.85157C10.9571 8.11967 12.0585 8.9431 12.6633 10.1176C13.2682 11.2857 13.3191 12.6518 12.797 13.8582C12.3832 14.8157 11.6447 15.5944 10.7088 16.0476C9.93205 16.4242 9.31449 17.0689 8.97705 17.8541L8.66509 18.5881C8.32765 19.3733 8.28309 20.2669 8.53775 21.0904C8.84972 22.0862 8.79242 23.1585 8.37859 24.116C7.85652 25.3224 6.83149 26.2225 5.57089 26.5799C5.18252 26.6885 4.78779 26.7459 4.39942 26.7459H4.39306ZM8.79242 9.22396C7.86289 9.22396 6.95245 9.68994 6.42402 10.4751C5.92105 11.2219 5.77462 12.1347 6.03565 12.9773C6.39855 14.1837 6.36035 15.371 5.90832 16.4051L5.50085 17.3562C5.05519 18.3903 4.22116 19.2329 3.10062 19.7946C2.31752 20.184 1.75089 20.9116 1.55352 21.7925C1.30522 22.9032 1.75726 24.0969 2.68679 24.748C3.43169 25.2778 4.31666 25.431 5.17615 25.1884C6.02292 24.9522 6.70415 24.3522 7.05432 23.5415C7.32809 22.9032 7.36629 22.1883 7.16255 21.5244C6.79965 20.3691 6.86332 19.118 7.34082 18.0137L7.65279 17.2796C8.13029 16.1753 8.98979 15.2753 10.0785 14.7391C10.7024 14.4391 11.1927 13.9156 11.4664 13.2773C11.8166 12.473 11.7784 11.5602 11.3773 10.7815C10.9635 9.98995 10.244 9.45376 9.35268 9.26865C9.16805 9.23035 8.98342 9.2112 8.79879 9.2112L8.79242 9.22396Z" fill="#FF2614"/>
<path d="M8.80516 16.488C8.21942 16.488 7.64006 16.3667 7.08616 16.1305C4.88966 15.1794 3.871 12.6133 4.81963 10.4047C5.76826 8.20253 8.32766 7.18122 10.5305 8.13232C11.5938 8.59191 12.4151 9.44088 12.848 10.526C13.2746 11.6048 13.2555 12.7921 12.7971 13.8581C12.3387 14.9241 11.4919 15.7475 10.4096 16.1816C9.89386 16.3858 9.34632 16.488 8.80516 16.488V16.488ZM8.80516 9.22385C7.68463 9.22385 6.61503 9.88132 6.14389 10.9792C5.51359 12.4474 6.18846 14.1645 7.65279 14.7964C8.36586 15.1028 9.14896 15.1156 9.86839 14.8283C10.5878 14.5411 11.1545 13.9921 11.4601 13.2772C11.7657 12.5623 11.7784 11.7771 11.4919 11.0558C11.2054 10.3345 10.6579 9.76642 9.94479 9.46003C9.56916 9.30045 9.18079 9.22385 8.79879 9.22385H8.80516Z" fill="#FF2614"/>
<path d="M7.97103 14.075C6.9078 13.6154 6.4112 12.3707 6.87597 11.2983C7.33437 10.2323 8.57587 9.73442 9.64547 10.2004C10.7087 10.66 11.2053 11.9047 10.7405 12.9771C10.2821 14.0431 9.04063 14.541 7.97103 14.075V14.075ZM8.48673 12.875C8.8942 13.0537 9.36533 12.8622 9.5436 12.4537C9.72187 12.0451 9.53087 11.5728 9.1234 11.3941C8.71593 11.2153 8.2448 11.4068 8.06653 11.8154C7.88827 12.2239 8.07927 12.6962 8.48673 12.875Z" fill="#FF2614"/>
<path d="M4.33571 37.9354C4.03011 37.9354 3.71815 37.9035 3.41255 37.8396C1.73811 37.4885 0.401114 36.1162 0.0827808 34.4246V34.4246C-0.165519 33.1097 0.178281 31.7756 1.03141 30.767C1.43888 30.2819 1.92911 29.4967 1.92911 28.5137V27.4797C1.92911 26.4903 1.43888 25.7051 1.03141 25.22C0.178281 24.2114 -0.165519 22.8774 0.0891475 21.5624C0.407481 19.8709 1.75085 18.5048 3.42528 18.1538C4.73681 17.8793 6.06744 18.1984 7.09248 19.0347C8.11114 19.8645 8.69687 21.0964 8.69687 22.4178C8.69687 23.4582 8.32124 24.4668 7.64638 25.2583C7.07974 25.9158 6.77414 26.7456 6.77414 27.6073V28.4052C6.77414 29.2606 7.08611 30.0968 7.64638 30.7542C8.32124 31.5394 8.69687 32.5479 8.69687 33.5948C8.69687 34.9097 8.11114 36.1417 7.09248 36.9779C6.30938 37.6162 5.34801 37.9481 4.34844 37.9481L4.33571 37.9354ZM1.49618 34.1565C1.70628 35.2799 2.59761 36.1864 3.70541 36.4225C4.60311 36.6077 5.47534 36.4034 6.16294 35.8417C6.84418 35.2863 7.23254 34.4629 7.23254 33.5884C7.23254 32.8926 6.98424 32.2224 6.53221 31.699C5.74274 30.7798 5.30981 29.6116 5.30981 28.4052V27.6073C5.30981 26.4009 5.74274 25.2328 6.53858 24.3136C6.99061 23.7902 7.23891 23.1135 7.23891 22.4241C7.23891 21.5433 6.85054 20.7262 6.16931 20.1709C5.48171 19.6091 4.60948 19.3985 3.71178 19.5836C2.60398 19.8134 1.71265 20.7262 1.50255 21.8433C1.33701 22.7305 1.56621 23.6178 2.13285 24.2944C2.94778 25.2583 3.37435 26.3626 3.37435 27.4924V28.5265C3.37435 29.6563 2.94141 30.7606 2.13285 31.7181C1.56621 32.3883 1.33701 33.282 1.50255 34.1693L1.49618 34.1565Z" fill="#FF2614"/>
<path d="M4.34872 26.7712C3.18999 26.7712 2.09492 26.318 1.27999 25.4946C0.45869 24.6711 0.000290579 23.5732 0.00665724 22.4115C0.00665724 21.2497 0.45869 20.1582 1.27999 19.3347C2.10129 18.5113 3.18999 18.0581 4.34872 18.0581C6.74259 18.0581 8.69078 20.0114 8.69078 22.4115C8.69078 23.5732 8.23875 24.6647 7.41745 25.4882C6.59615 26.3116 5.50745 26.7648 4.34872 26.7648V26.7712ZM4.34872 19.5135C3.57835 19.5135 2.84619 19.8135 2.29866 20.3624C1.75112 20.9114 1.45189 21.6391 1.45189 22.4178C1.45189 23.1966 1.75112 23.9243 2.29866 24.4732C2.84619 25.0222 3.57199 25.3222 4.34872 25.3222C5.11909 25.3222 5.85125 25.0222 6.39879 24.4732C6.94632 23.9243 7.24555 23.1966 7.24555 22.4178C7.24555 21.6391 6.94632 20.9114 6.39879 20.3624C5.85125 19.8135 5.12545 19.5135 4.34872 19.5135Z" fill="#FF2614"/>
<path d="M4.34833 24.524C3.1896 24.524 2.24097 23.5729 2.24097 22.4112C2.24097 21.2494 3.1896 20.2983 4.34833 20.2983C5.50706 20.2983 6.4557 21.2494 6.4557 22.4112C6.4557 23.5729 5.50706 24.524 4.34833 24.524ZM4.34833 23.2155C4.78763 23.2155 5.15053 22.858 5.15053 22.4112C5.15053 21.9707 4.794 21.6069 4.34833 21.6069C3.90903 21.6069 3.54613 21.9644 3.54613 22.4112C3.54613 22.8516 3.90267 23.2155 4.34833 23.2155Z" fill="#FF2614"/>
<path d="M29.1211 55.9999C27.6376 55.9999 26.2051 55.2148 25.4284 53.9254C24.7344 52.7764 24.5944 51.4104 25.04 50.1657C25.4857 48.9209 26.4534 47.9635 27.6886 47.5294C28.669 47.1847 29.7386 47.2039 30.7064 47.5868C31.5086 47.8996 32.3999 47.9188 33.2085 47.6379L33.9597 47.3762C34.7683 47.0953 35.4495 46.5208 35.8825 45.774C36.3982 44.874 37.2258 44.1846 38.2063 43.8399C39.4478 43.3995 40.7975 43.5527 41.9181 44.242C43.0386 44.9314 43.7835 46.0868 43.9554 47.4209C44.1782 49.1188 43.3315 50.8423 41.848 51.704C40.6893 52.3743 39.3205 52.4892 38.0917 52.0168C37.4996 51.787 36.5955 51.5891 35.666 51.9147L34.6919 52.2594C33.7624 52.5849 33.1894 53.3062 32.8647 53.8552C32.1962 54.9914 31.0565 55.7574 29.7386 55.9616C29.5285 55.9935 29.3248 56.0063 29.1147 56.0063L29.1211 55.9999ZM29.1274 48.7358C28.8027 48.7358 28.478 48.7869 28.1724 48.9018C27.3448 49.1954 26.7017 49.8337 26.4025 50.6636C26.1033 51.5061 26.1924 52.3998 26.6699 53.1849C27.2556 54.1552 28.408 54.6978 29.5285 54.5254C30.4135 54.3914 31.1775 53.8807 31.6232 53.1211C32.2598 52.036 33.1575 51.2636 34.2208 50.8934L35.1949 50.5487C36.2581 50.1721 37.4359 50.2167 38.6138 50.6636C39.4351 50.9763 40.3519 50.8997 41.1286 50.4465C42.1154 49.872 42.6757 48.7358 42.5229 47.606C42.4019 46.6996 41.9181 45.94 41.1604 45.474C40.4155 45.0144 39.5115 44.9123 38.6838 45.2059C38.028 45.4357 37.4805 45.8953 37.1367 46.4953C36.5319 47.5485 35.5769 48.3465 34.4372 48.7422L33.686 49.0039C32.5527 49.3997 31.3048 49.3805 30.1779 48.9337C29.8405 48.7997 29.4776 48.7358 29.1211 48.7358H29.1274Z" fill="#FF2614"/>
<path d="M39.6516 52.3041C37.8562 52.3041 36.1754 51.1806 35.5515 49.3933C34.762 47.1273 35.9526 44.6378 38.2127 43.8463C39.3078 43.4633 40.4856 43.5272 41.5298 44.0314C42.5739 44.5357 43.3633 45.4166 43.7453 46.5145C44.5348 48.7806 43.3442 51.27 41.0841 52.0615C40.613 52.2275 40.1291 52.3041 39.6516 52.3041ZM39.6516 45.04C39.3269 45.04 39.0022 45.0974 38.6902 45.2059C37.1813 45.7358 36.3855 47.3954 36.9139 48.9082C37.4424 50.421 39.0977 51.2189 40.6066 50.6891C42.1155 50.1593 42.9113 48.4997 42.3829 46.9869C42.1282 46.2528 41.5998 45.6655 40.9058 45.3272C40.5111 45.1357 40.0782 45.04 39.6516 45.04V45.04Z" fill="#FF2614"/>
<path d="M38.9511 45.9529C40.0462 45.5699 41.2495 46.1507 41.6378 47.2487C42.0198 48.3466 41.4405 49.553 40.3454 49.9424C39.2503 50.3254 38.047 49.7445 37.6587 48.6466C37.2703 47.5487 37.856 46.3422 38.9511 45.9529V45.9529ZM39.9125 48.704C40.3327 48.5572 40.5491 48.0976 40.4027 47.6827C40.2563 47.2614 39.7979 47.0444 39.384 47.1912C38.9702 47.338 38.7474 47.7976 38.8938 48.2125C39.0402 48.6338 39.4986 48.8509 39.9125 48.704Z" fill="#FF2614"/>
<path d="M29.121 55.9296C27.905 55.9296 26.7526 55.4381 25.925 54.5445C25.492 54.0785 24.7726 53.4976 23.7921 53.3827L22.7671 53.2614C21.793 53.1465 20.9526 53.5359 20.4242 53.887C19.3291 54.6147 17.9667 54.7998 16.6933 54.3976C15.0571 53.8806 13.8602 52.3869 13.7074 50.6762C13.5928 49.3421 14.0639 48.0463 15.0062 47.1335C15.9484 46.2143 17.2409 45.7739 18.546 45.9335C19.5774 46.0548 20.5324 46.5463 21.2327 47.3123C21.8185 47.9506 22.6079 48.3591 23.4547 48.4612L24.2442 48.557C25.0909 48.6591 25.9568 48.4485 26.6699 47.9634C27.5294 47.3825 28.5735 47.1272 29.6049 47.2548C30.9101 47.408 32.0624 48.1357 32.7628 49.2528C33.4631 50.3634 33.6223 51.7358 33.2021 53.0061C32.6545 54.6338 31.1393 55.802 29.433 55.9232C29.3248 55.9296 29.2229 55.936 29.1147 55.936L29.121 55.9296ZM22.4169 51.7933C22.5952 51.7933 22.7671 51.8061 22.939 51.8252L23.964 51.9465C25.0846 52.0805 26.1223 52.6359 26.9818 53.5614C27.5803 54.2061 28.4398 54.5445 29.3375 54.4742C30.4708 54.3976 31.4767 53.6189 31.8396 52.5401C32.1325 51.672 32.0306 50.7784 31.5531 50.0251C31.082 49.2847 30.318 48.7996 29.4457 48.691C28.7581 48.6081 28.0642 48.774 27.4912 49.1634C26.4852 49.84 25.2756 50.1336 24.085 49.9932L23.2955 49.8975C22.105 49.757 20.9972 49.1826 20.1759 48.2889C19.7111 47.7782 19.0744 47.4527 18.3869 47.3697C17.521 47.2676 16.6551 47.5548 16.0248 48.1676C15.3882 48.7868 15.0762 49.6358 15.159 50.5486C15.2608 51.6784 16.0567 52.6742 17.139 53.0189C17.9985 53.287 18.9089 53.1657 19.6411 52.6806C20.526 52.0933 21.481 51.7933 22.4233 51.7933H22.4169Z" fill="#FF2614"/>
<path d="M29.1084 55.9294C28.9365 55.9294 28.7583 55.9167 28.5864 55.8975C27.434 55.7635 26.4026 55.1826 25.6895 54.2698C24.9701 53.357 24.6518 52.2144 24.7918 51.0654C25.072 48.6781 27.243 46.9674 29.6178 47.2546C30.7701 47.3887 31.8015 47.9695 32.5146 48.8823C33.234 49.7952 33.5524 50.9377 33.4123 52.0931C33.2786 53.2485 32.6992 54.2826 31.7888 54.9975C31.0184 55.6103 30.0825 55.9294 29.1084 55.9294ZM29.0957 48.6717C27.6505 48.6717 26.3962 49.7569 26.218 51.2314C26.1288 52.0037 26.3389 52.7633 26.8164 53.3698C27.2939 53.9762 27.9815 54.3655 28.7519 54.4549C30.3436 54.64 31.7824 53.5038 31.9734 51.9144C32.0626 51.142 31.8525 50.3824 31.375 49.776C30.8975 49.1696 30.2099 48.7802 29.4395 48.6909C29.3249 48.6781 29.2103 48.6717 29.0957 48.6717Z" fill="#FF2614"/>
<path d="M29.3503 49.4828C30.5027 49.6232 31.3303 50.6701 31.1903 51.8254C31.0502 52.9808 30.0061 53.8106 28.8537 53.6702C27.7013 53.5297 26.8737 52.4829 27.0137 51.3275C27.1538 50.1722 28.1979 49.3424 29.3503 49.4828ZM29.0065 52.3744C29.4458 52.4255 29.8469 52.1127 29.8978 51.6722C29.9488 51.2318 29.6368 50.8296 29.1975 50.7786C28.7582 50.7275 28.3571 51.0403 28.3062 51.4807C28.2552 51.9212 28.5672 52.3233 29.0065 52.3744Z" fill="#FF2614"/>
<path d="M18.0303 54.5445C17.451 54.5445 16.8652 54.4296 16.3241 54.187C15.1017 53.6508 14.1976 52.6103 13.8474 51.3401C13.6819 50.7273 13.3063 49.8783 12.4977 49.323L11.6446 48.7357C10.836 48.1804 9.91283 48.1357 9.28253 48.2059C7.971 48.34 6.68493 47.874 5.74267 46.9229C4.533 45.7037 4.16373 43.8206 4.8195 42.2376C5.3352 40.9993 6.35387 40.0737 7.61447 39.7035C8.87506 39.3269 10.2184 39.5439 11.3008 40.2843C12.1603 40.8716 12.7778 41.7525 13.0452 42.7547C13.2681 43.5909 13.7774 44.3185 14.4841 44.8037L15.1399 45.2569C15.8466 45.742 16.7061 45.959 17.5656 45.8633C18.597 45.7548 19.6347 46.0101 20.4942 46.5974C21.5766 47.3442 22.2578 48.5187 22.366 49.8336C22.4743 51.1486 21.984 52.4316 21.0163 53.3636C20.2077 54.1359 19.1254 54.5508 18.0303 54.5508V54.5445ZM9.73456 46.7314C10.7532 46.7314 11.6891 47.0059 12.4659 47.5421L13.319 48.1293C14.2485 48.7676 14.9107 49.7443 15.2481 50.9635C15.4773 51.8124 16.0885 52.5082 16.9098 52.8657C17.9539 53.3253 19.2018 53.1019 20.0231 52.3167C20.6852 51.6848 21.0036 50.8422 20.9335 49.9549C20.8635 49.0804 20.4051 48.2889 19.6857 47.791C19.1127 47.3953 18.4187 47.2229 17.7311 47.2995C16.5278 47.4336 15.3181 47.1335 14.3313 46.4505L13.6755 45.9973C12.6823 45.3143 11.9693 44.293 11.6573 43.1249C11.479 42.4546 11.0652 41.8674 10.4986 41.478C9.77276 40.9801 8.87506 40.8397 8.03466 41.0886C7.18153 41.344 6.5194 41.944 6.16287 42.793C5.72993 43.8398 5.97187 45.0909 6.77407 45.9016C7.40437 46.5399 8.27023 46.8591 9.14246 46.7633C9.3462 46.7442 9.54356 46.7314 9.74093 46.7314H9.73456Z" fill="#FF2614"/>
<path d="M18.0303 54.5381C17.1644 54.5381 16.3177 54.2763 15.5855 53.7721C13.6118 52.4124 13.1025 49.6996 14.4586 47.7208C15.8147 45.742 18.5205 45.2313 20.4942 46.5909C22.4679 47.9506 22.9772 50.6634 21.6211 52.6422C20.9653 53.5997 19.9785 54.2508 18.8389 54.4615C18.5715 54.5125 18.2977 54.5381 18.0303 54.5381ZM15.6492 48.5378C15.2099 49.1761 15.0507 49.9485 15.1908 50.7145C15.3308 51.4741 15.7638 52.138 16.4004 52.5784C17.0371 53.0188 17.8075 53.1784 18.5715 53.038C19.3355 52.8976 19.9912 52.4635 20.4305 51.8252C21.3346 50.5039 20.9972 48.691 19.6793 47.7846C18.3614 46.8782 16.5532 47.2165 15.6492 48.5378Z" fill="#FF2614"/>
<path d="M19.2273 48.4422C20.1823 49.0997 20.4306 50.4146 19.7749 51.3785C19.1191 52.3359 17.8076 52.5849 16.8462 51.9274C15.8912 51.27 15.6429 49.955 16.2987 48.9911C16.9544 48.0273 18.266 47.7847 19.2273 48.4422V48.4422ZM17.5847 50.8487C17.9476 51.0976 18.4506 51.0082 18.6989 50.638C18.9472 50.2742 18.8581 49.7699 18.4888 49.521C18.1259 49.272 17.6229 49.3614 17.3746 49.7316C17.1263 50.0954 17.2155 50.5997 17.5847 50.8487Z" fill="#FF2614"/>
<path d="M8.7988 48.2317C7.39814 48.2317 6.02931 47.5296 5.22711 46.3423C4.47584 45.2316 4.26574 43.872 4.64774 42.6081C4.83237 42.0017 4.97244 41.0825 4.57771 40.1761L4.17024 39.225C3.78187 38.3186 3.02424 37.7951 2.45124 37.5079C1.27341 36.9206 0.426644 35.8355 0.133778 34.5269V34.5269C-0.241855 32.8482 0.445744 31.0545 1.84641 30.0714C2.94148 29.2991 4.29121 29.0629 5.55817 29.4204C6.82514 29.7778 7.85017 30.6779 8.37224 31.8843C8.78607 32.8418 8.84337 33.9141 8.5314 34.9099C8.27037 35.7334 8.31494 36.627 8.65874 37.4122L8.9707 38.1462C9.30814 38.9314 9.9257 39.5761 10.7024 39.9527C11.6383 40.4059 12.3769 41.1846 12.7907 42.1421C13.3128 43.3485 13.2618 44.7146 12.657 45.8827C12.0522 47.0508 10.9507 47.8743 9.6392 48.1423C9.35907 48.1998 9.07894 48.2253 8.7988 48.2253V48.2317ZM1.54718 34.2142C1.74454 35.095 2.30481 35.8227 3.09428 36.2121C4.22117 36.7738 5.04884 37.6164 5.49451 38.6505L5.90197 39.6016C6.34764 40.6357 6.39221 41.823 6.02931 43.0294C5.77464 43.872 5.91471 44.7848 6.42404 45.5252C7.06071 46.4699 8.23854 46.9487 9.34634 46.7253C10.244 46.5402 10.9635 46.004 11.3709 45.2125C11.7784 44.4337 11.8102 43.5209 11.4601 42.7166C11.1863 42.0783 10.6897 41.5612 10.0658 41.2549C8.97707 40.725 8.11757 39.825 7.64007 38.7143L7.32811 37.9803C6.85061 36.876 6.78694 35.6249 7.14984 34.4695C7.35357 33.8056 7.32174 33.0907 7.04161 32.4524C6.69144 31.6481 6.01021 31.0481 5.16344 30.8055C4.30394 30.563 3.42534 30.7225 2.67408 31.246C1.74454 31.9034 1.29251 33.0907 1.54081 34.2014L1.54718 34.2142Z" fill="#FF2614"/>
<path d="M8.79872 48.2253C8.25755 48.2253 7.71639 48.1231 7.19432 47.9189C6.11836 47.4912 5.27159 46.6678 4.80682 45.5954C4.34842 44.5294 4.32932 43.3421 4.75589 42.2633C5.18246 41.1846 6.00376 40.3356 7.07335 39.8696C9.26985 38.9185 11.8293 39.9398 12.7843 42.142C13.2426 43.208 13.2617 44.3953 12.8352 45.4741C12.4086 46.5529 11.5873 47.4018 10.5177 47.8678C9.96382 48.1104 9.38445 48.2253 8.79872 48.2253ZM7.64635 41.2037C6.93329 41.5101 6.38576 42.0782 6.09926 42.7995C5.81276 43.5208 5.82549 44.3123 6.13109 45.0209C6.43669 45.7358 7.00332 46.2848 7.72275 46.572C8.44219 46.8593 9.23165 46.8465 9.93835 46.5401C10.6514 46.2337 11.199 45.6656 11.4855 44.9443C11.772 44.223 11.7592 43.4315 11.4536 42.7229C10.817 41.2548 9.11069 40.5718 7.64635 41.2101V41.2037Z" fill="#FF2614"/>
<path d="M10.7342 43.0293C11.1926 44.0953 10.7023 45.34 9.6391 45.806C8.57587 46.2656 7.33437 45.7741 6.8696 44.7081C6.4112 43.6421 6.90144 42.3973 7.96467 41.9314C9.0279 41.4654 10.2694 41.9633 10.7342 43.0293ZM8.06654 44.1846C8.2448 44.5932 8.71594 44.7783 9.1234 44.6059C9.53087 44.4272 9.7155 43.9548 9.5436 43.5463C9.36534 43.1378 8.8942 42.9527 8.48674 43.125C8.07927 43.3037 7.89464 43.7761 8.06654 44.1846Z" fill="#FF2614"/>
<path d="M4.34208 37.9418C4.03648 37.9418 3.73088 37.9099 3.42528 37.8461C1.75085 37.495 0.407481 36.129 0.0891475 34.4374C-0.159152 33.1225 0.184647 31.7884 1.03141 30.7798C1.43888 30.2947 1.92911 29.5096 1.92911 28.5202V27.4861C1.92911 26.5031 1.43888 25.7179 1.03141 25.2328C0.178281 24.2243 -0.165519 22.8965 0.0827808 21.5752H0.0764141C0.394747 19.8837 1.73175 18.5113 3.40618 18.1602C4.71771 17.8857 6.05471 18.2049 7.07338 19.0347C8.09204 19.8645 8.67777 21.0965 8.67777 22.4178C8.67777 23.4583 8.30851 24.4668 7.62727 25.2583C7.06064 25.9158 6.75504 26.752 6.75504 27.6074V28.4053C6.75504 29.2606 7.06701 30.0968 7.63364 30.7543C8.30851 31.5394 8.68414 32.548 8.68414 33.5948C8.68414 34.9098 8.09841 36.1417 7.07974 36.9779C6.29664 37.6163 5.32891 37.9546 4.33571 37.9546L4.34208 37.9418ZM1.49618 21.8433C1.33065 22.7306 1.55985 23.6179 2.12648 24.2945C2.94141 25.2583 3.36798 26.3563 3.36798 27.4861V28.5202C3.36798 29.65 2.94141 30.7543 2.12648 31.7182C1.55985 32.3884 1.33065 33.282 1.49618 34.1693C1.71265 35.2928 2.59761 36.1992 3.70541 36.429C4.59674 36.6141 5.47534 36.4098 6.16294 35.8417C6.84418 35.2864 7.23254 34.4629 7.23254 33.5884C7.23254 32.8927 6.98424 32.2224 6.53221 31.699C5.74274 30.7798 5.30981 29.6117 5.30344 28.4053V27.6074C5.30344 26.4009 5.73638 25.2328 6.52584 24.3136C6.97788 23.7902 7.22618 23.1136 7.22618 22.4242C7.22618 21.5433 6.83781 20.7263 6.15658 20.1709C5.46261 19.6092 4.59038 19.4049 3.69904 19.59C2.59125 19.8198 1.69991 20.7326 1.48981 21.8561L1.49618 21.8433Z" fill="#FF2614"/>
<path d="M4.34843 37.9416C1.95457 37.9416 0 35.9883 0 33.5882C0 31.1881 1.9482 29.2349 4.34206 29.2349C6.73593 29.2349 8.68413 31.1881 8.68413 33.5882C8.68413 34.75 8.23209 35.8479 7.41079 36.6649C6.5895 37.4884 5.5008 37.9416 4.34206 37.9416H4.34843ZM4.34843 29.9562V30.6839C2.7504 30.6839 1.4516 31.986 1.4516 33.5882C1.4516 35.1904 2.7504 36.4926 4.34843 36.4926C5.12516 36.4926 5.85096 36.1926 6.3985 35.6436C6.94603 35.0947 7.24526 34.367 7.24526 33.5882C7.24526 31.986 5.94646 30.6839 4.34843 30.6839V29.9562V29.9562Z" fill="#FF2614"/>
<path d="M6.44935 33.5884C6.44935 34.7502 5.50708 35.7013 4.34198 35.7013C3.18325 35.7013 2.23462 34.7566 2.23462 33.5884C2.23462 32.4267 3.17689 31.4756 4.34198 31.4756C5.50708 31.4756 6.44935 32.4203 6.44935 33.5884ZM3.53978 33.5884C3.53978 34.0289 3.90268 34.3927 4.34198 34.3927C4.78128 34.3927 5.14418 34.0289 5.14418 33.5884C5.14418 33.148 4.78128 32.7841 4.34198 32.7841C3.90268 32.7841 3.53978 33.148 3.53978 33.5884Z" fill="#FF2614"/>
</g>
<defs>
<clipPath id="clip0_62_1258">
<rect width="44" height="56" fill="white"/>
</clipPath>
</defs>
</svg>
