<svg width="123" height="37" viewBox="0 0 123 37" fill="none" xmlns="http://www.w3.org/2000/svg">
<g clip-path="url(#clip0_34_1145)">
<path d="M26.0866 8.16383C25.7682 8.16383 25.4499 8.10923 25.1399 8.00005C24.4949 7.77328 23.9504 7.31973 23.6111 6.7276C23.3263 6.23626 22.8781 5.85831 22.3462 5.67353L21.8519 5.50135C21.3199 5.31238 20.7377 5.32497 20.2058 5.53495C19.5691 5.78272 18.8654 5.79532 18.2204 5.57274C17.4036 5.28718 16.7669 4.65306 16.4779 3.83836C16.1847 3.02366 16.2769 2.12077 16.7334 1.36486C17.3157 0.398975 18.455 -0.138559 19.5733 0.0336197C20.4403 0.163804 21.1901 0.671942 21.6299 1.41945C21.8393 1.78061 22.2205 2.25515 22.832 2.46932L23.4729 2.6961C24.0844 2.91027 24.6792 2.77589 25.0687 2.6289C25.8771 2.31814 26.7777 2.39373 27.54 2.83468C28.516 3.40161 29.073 4.53547 28.9264 5.65253C28.8092 6.52603 28.3233 7.29034 27.5861 7.74388C27.1295 8.02525 26.6143 8.16803 26.0908 8.16803L26.0866 8.16383ZM21.077 4.41369C21.4456 4.41369 21.8142 4.47668 22.166 4.59846L22.6603 4.77064C23.4059 5.03521 24.0383 5.56015 24.4321 6.24886C24.6583 6.64361 25.0227 6.94598 25.4499 7.09716C25.9944 7.28614 26.5892 7.22314 27.0793 6.92078C27.5777 6.61422 27.896 6.11448 27.9756 5.51815C28.072 4.77484 27.7034 4.02733 27.0583 3.64938C26.5473 3.35122 25.9442 3.30082 25.4038 3.5066C24.6331 3.80056 23.854 3.82996 23.1546 3.58219L22.5137 3.35541C21.8142 3.11184 21.2236 2.60371 20.8048 1.88979C20.5116 1.39005 20.0089 1.0541 19.4267 0.965906C18.6895 0.85252 17.9314 1.20948 17.546 1.8478C17.2361 2.36434 17.1732 2.95226 17.3701 3.5066C17.567 4.05253 17.99 4.47248 18.5345 4.66565C18.966 4.81684 19.4351 4.80844 19.8581 4.64046C20.2477 4.48508 20.6623 4.40949 21.0728 4.40949L21.077 4.41369Z" fill="#87FFF3"/>
<path d="M26.0865 8.16803C25.7682 8.16803 25.4498 8.11343 25.1399 8.00425C23.6529 7.48351 22.8697 5.84571 23.3891 4.35489C23.6404 3.63258 24.1598 3.05305 24.8467 2.72129C25.5336 2.38953 26.3127 2.34754 27.0289 2.59951C27.7494 2.85148 28.3274 3.37221 28.6583 4.06093C28.9892 4.74964 29.0311 5.52655 28.7798 6.24886C28.5285 6.97117 28.0091 7.5507 27.3221 7.88246C26.9284 8.07144 26.5096 8.16803 26.0865 8.16803ZM26.0865 3.38901C25.8059 3.38901 25.5252 3.452 25.2614 3.57799C24.8006 3.80056 24.4571 4.18691 24.2896 4.66985C23.942 5.66513 24.4655 6.757 25.4582 7.10556C25.9399 7.27354 26.4551 7.24414 26.9159 7.02577C27.3766 6.80319 27.7201 6.41684 27.8876 5.9339C28.2353 4.93862 27.7117 3.84675 26.719 3.4982C26.5137 3.42681 26.3001 3.38901 26.0865 3.38901Z" fill="#87FFF3"/>
<path d="M24.7798 4.84205C25.0311 4.11974 25.8227 3.73759 26.5473 3.98956C27.2678 4.24153 27.649 5.03523 27.3976 5.76174C27.1463 6.48405 26.3547 6.86621 25.63 6.61424C24.9096 6.36227 24.5284 5.56857 24.7798 4.84205V4.84205ZM25.5882 5.12762C25.4918 5.40059 25.6384 5.70715 25.9107 5.79954C26.1871 5.89613 26.4887 5.74914 26.5809 5.47618C26.6772 5.20321 26.5306 4.89665 26.2583 4.80426C25.9819 4.70767 25.6803 4.85465 25.5882 5.12762Z" fill="#87FFF3"/>
<path d="M11.8663 6.64364C11.1291 6.64364 10.4171 6.35808 9.88091 5.83314C9.261 5.22842 8.94686 4.38012 9.02644 3.49823C9.12697 2.37276 9.91442 1.39008 10.9909 1.04993C11.8286 0.785358 12.725 0.907143 13.4454 1.38588C13.7931 1.61686 14.3418 1.87722 14.9868 1.79743L15.6612 1.71764C16.302 1.64205 16.7795 1.2599 17.0644 0.953337C17.6508 0.323414 18.4927 -0.00834544 19.3681 0.0546469C20.4948 0.134437 21.4917 0.902943 21.8477 1.97381C22.1284 2.80951 22.0236 3.7082 21.5587 4.44311C21.0938 5.17802 20.3398 5.65256 19.4812 5.75755C18.8026 5.83734 18.1157 5.67356 17.5502 5.29141C17.0811 4.97225 16.5115 4.83366 15.9502 4.90086L15.4308 4.96385C14.8737 5.03104 14.3543 5.29981 13.969 5.71976C13.5082 6.22369 12.8799 6.54705 12.2014 6.62684C12.0883 6.63944 11.9752 6.64784 11.8621 6.64784L11.8663 6.64364ZM11.8705 1.86883C11.6736 1.86883 11.4726 1.89822 11.2757 1.96121C10.5637 2.18799 10.0401 2.83891 9.97306 3.58222C9.9228 4.18274 10.1239 4.73708 10.5427 5.14863C10.9574 5.55178 11.527 5.74495 12.0967 5.67356C12.549 5.61897 12.9679 5.40479 13.2779 5.06884C13.814 4.48091 14.5428 4.10295 15.3303 4.01056L15.8497 3.94757C16.6329 3.85518 17.4329 4.04836 18.0906 4.49351C18.4675 4.74967 18.9283 4.85886 19.3765 4.80427C19.9503 4.73708 20.4529 4.41791 20.7629 3.92657C21.077 3.43104 21.144 2.84311 20.9514 2.27198C20.7126 1.56226 20.0508 1.04993 19.3052 0.999532C18.723 0.961736 18.1534 1.18011 17.7597 1.60006C17.1942 2.20478 16.5073 2.57434 15.7743 2.66253L15.0999 2.74232C14.3627 2.83051 13.6129 2.63313 12.9218 2.17539C12.6077 1.96961 12.2433 1.86043 11.8747 1.86043L11.8705 1.86883Z" fill="#87FFF3"/>
<path d="M19.1419 5.7743C18.5053 5.7743 17.8895 5.56013 17.3785 5.16118C16.7796 4.68664 16.3984 4.01052 16.3104 3.25041C16.2183 2.4903 16.4319 1.7428 16.901 1.13807C17.3743 0.537543 18.0487 0.15539 18.8068 0.0672007C19.565 -0.0251881 20.3105 0.188986 20.9095 0.659328C21.5085 1.13387 21.8896 1.80999 21.9776 2.57009C22.1619 4.1365 21.0435 5.56853 19.477 5.75331C19.3639 5.7659 19.2466 5.7743 19.1335 5.7743H19.1419ZM19.1503 0.999487C19.0749 0.999487 18.9995 1.00369 18.9199 1.01209C18.4131 1.07088 17.9607 1.32705 17.6466 1.726C17.3324 2.12915 17.19 2.62889 17.2529 3.13283C17.3157 3.63676 17.567 4.09451 17.9649 4.40947C18.3628 4.72443 18.8613 4.86721 19.3681 4.80422C20.4111 4.67824 21.1608 3.72915 21.0352 2.67928C20.9765 2.17114 20.721 1.7176 20.3231 1.40264C19.9838 1.13387 19.5733 0.991088 19.1461 0.991088L19.1503 0.999487Z" fill="#87FFF3"/>
<path d="M17.7722 3.07405C17.68 2.31394 18.2246 1.62103 18.9827 1.53284C19.7408 1.44045 20.432 1.98638 20.5199 2.74649C20.6121 3.5066 20.0675 4.19951 19.3094 4.2877C18.5513 4.38009 17.8602 3.83416 17.7722 3.07405ZM18.6225 2.97326C18.656 3.26303 18.9199 3.4688 19.2089 3.43521C19.4979 3.40161 19.7031 3.13704 19.6696 2.84728C19.6361 2.55751 19.3722 2.35174 19.0832 2.38534C18.7942 2.41893 18.589 2.6835 18.6225 2.97326Z" fill="#87FFF3"/>
<path d="M5.82632 10.8473C5.55407 10.8473 5.28181 10.8095 5.00955 10.7297C4.18021 10.4819 3.51003 9.87717 3.17076 9.06247C2.73933 8.021 2.98227 6.78215 3.7781 5.98005C4.39801 5.35432 5.24411 5.04776 6.10696 5.13595C6.52163 5.17794 7.12898 5.15275 7.66093 4.78739L8.2222 4.40104C8.75834 4.03568 9.00128 3.47715 9.11018 3.074C9.34055 2.2341 9.93115 1.55379 10.7395 1.20103C11.7741 0.747484 13.0139 0.965857 13.8265 1.74696C14.4632 2.35589 14.7857 3.20418 14.7145 4.06928C14.6433 4.93437 14.1951 5.71128 13.4831 6.19842C12.9176 6.58477 12.2349 6.75695 11.5563 6.68136C10.995 6.61837 10.4254 6.76115 9.96047 7.08031L9.52904 7.37847C9.06411 7.69764 8.72902 8.17638 8.58242 8.72651C8.4065 9.39003 8.0002 9.96536 7.43474 10.3517C6.95306 10.6835 6.39178 10.8557 5.82214 10.8557L5.82632 10.8473ZM4.45247 6.64776C3.9247 7.1811 3.76135 8 4.05036 8.69291C4.28073 9.24725 4.71635 9.6462 5.28181 9.81418C5.8347 9.97796 6.42529 9.88557 6.90279 9.55801C7.27977 9.29764 7.55202 8.91549 7.66512 8.47454C7.87036 7.70183 8.33948 7.02992 8.9929 6.58477L9.42433 6.28661C10.0777 5.83726 10.8694 5.63989 11.661 5.72808C12.1134 5.77847 12.57 5.66508 12.9469 5.40472C13.4202 5.07716 13.7218 4.56062 13.7679 3.98529C13.814 3.40156 13.6045 2.84723 13.1689 2.43148C12.6328 1.91494 11.8076 1.76796 11.1249 2.07032C10.5846 2.30969 10.1867 2.76324 10.0317 3.32597C9.81387 4.12387 9.37406 4.77059 8.76253 5.19054L8.20126 5.57689C7.58972 5.99684 6.83159 6.17322 6.01062 6.08923C5.43679 6.03044 4.86714 6.23621 4.45247 6.65616V6.64776Z" fill="#87FFF3"/>
<path d="M11.8747 6.68978C10.9615 6.68978 10.0652 6.25303 9.51229 5.44673C9.08086 4.81681 8.92169 4.0525 9.05992 3.30079C9.20233 2.54908 9.62538 1.89816 10.2537 1.46142C11.5521 0.566924 13.3365 0.902883 14.2245 2.20472C15.1166 3.50657 14.7815 5.29555 13.4831 6.18584C12.9888 6.526 12.4275 6.68558 11.8705 6.68558L11.8747 6.68978ZM10.2997 4.905C10.8945 5.77429 12.0841 5.99686 12.9511 5.40053C13.8182 4.80421 14.0402 3.61155 13.4454 2.74226C12.8506 1.87297 11.661 1.65039 10.794 2.24672C10.3751 2.53648 10.0903 2.96903 9.99816 3.47297C9.90601 3.97271 10.0107 4.48085 10.2997 4.905Z" fill="#87FFF3"/>
<path d="M10.727 4.61103C10.2955 3.98111 10.4547 3.11181 11.0872 2.67926C11.7155 2.24672 12.5825 2.4063 13.0139 3.04042C13.4454 3.67034 13.2862 4.53964 12.6537 4.97219C12.0254 5.40473 11.1584 5.24515 10.727 4.61103ZM11.4348 4.12389C11.5982 4.36326 11.9291 4.42625 12.1678 4.26247C12.4066 4.09869 12.4694 3.76693 12.3061 3.52756C12.1427 3.28819 11.8118 3.2252 11.5731 3.38898C11.3343 3.55276 11.2715 3.88452 11.4348 4.12389Z" fill="#87FFF3"/>
<path d="M2.89012 17.5959C2.30372 17.5959 1.71731 17.4111 1.21887 17.0583C0.297381 16.4074 -0.154987 15.2315 0.0921395 14.1271C0.284815 13.2662 0.837709 12.5523 1.61679 12.1659C1.98957 11.9811 2.4922 11.6326 2.74771 11.0363L3.01578 10.4105C3.27128 9.81421 3.18332 9.21368 3.06185 8.81053C2.81054 7.97903 2.94876 7.08454 3.44301 6.35383C4.07549 5.41735 5.23992 4.94281 6.34571 5.16538C7.20856 5.34176 7.93319 5.88349 8.3311 6.6562C8.72902 7.4247 8.76253 8.32339 8.41906 9.1171C8.1468 9.74702 7.66093 10.2594 7.0452 10.5575C6.5342 10.8053 6.1279 11.2294 5.90591 11.746L5.70067 12.2289C5.47867 12.7455 5.44935 13.3334 5.61689 13.8751C5.82214 14.5302 5.78444 15.2357 5.51218 15.8657C5.16871 16.6594 4.49435 17.2515 3.66501 17.4867C3.40951 17.5581 3.14981 17.5959 2.89431 17.5959H2.89012ZM5.78444 6.06827C5.1729 6.06827 4.57393 6.37483 4.22628 6.89137C3.89538 7.38271 3.79904 7.98323 3.97078 8.53757C4.20953 9.33127 4.1844 10.1124 3.88701 10.7927L3.61894 11.4184C3.32573 12.0987 2.77703 12.6531 2.03984 13.0226C1.52464 13.2788 1.15185 13.7575 1.02201 14.3371C0.858652 15.0678 1.15604 15.8531 1.76758 16.2814C2.25764 16.63 2.83986 16.7308 3.40532 16.5712C3.9624 16.4158 4.41058 16.0211 4.64095 15.4877C4.82106 15.0678 4.84619 14.5974 4.71216 14.1607C4.47341 13.4006 4.51529 12.5775 4.82944 11.851L5.03468 11.368C5.34882 10.6415 5.91428 10.0494 6.63053 9.69663C7.04102 9.49925 7.36354 9.15489 7.54365 8.73494C7.77402 8.20581 7.74889 7.60528 7.48501 7.09294C7.21275 6.57221 6.73944 6.21945 6.15303 6.09766C6.03156 6.07247 5.9101 6.05987 5.78863 6.05987L5.78444 6.06827Z" fill="#87FFF3"/>
<path d="M5.79283 10.8473C5.40747 10.8473 5.02631 10.7675 4.66191 10.6121C3.21684 9.98638 2.54667 8.29819 3.17077 6.84516C3.79487 5.39634 5.47868 4.72442 6.92793 5.35015C7.62743 5.65251 8.16776 6.21104 8.45258 6.92495C8.73322 7.63467 8.72065 8.41577 8.41907 9.11709C8.11749 9.8184 7.56041 10.3601 6.84835 10.6457C6.50907 10.7801 6.14886 10.8473 5.79283 10.8473V10.8473ZM5.79283 6.06826C5.05563 6.06826 4.35195 6.50081 4.04199 7.22312C3.62732 8.189 4.07131 9.31866 5.03469 9.73441C5.50381 9.93599 6.01901 9.94439 6.49232 9.75541C6.96563 9.56643 7.33842 9.20528 7.53947 8.73493C7.74052 8.26459 7.7489 7.74805 7.56041 7.27351C7.37192 6.79897 7.01171 6.42521 6.54258 6.22364C6.29546 6.11865 6.03995 6.06826 5.78864 6.06826H5.79283Z" fill="#87FFF3"/>
<path d="M5.24409 9.25987C4.54459 8.9575 4.21788 8.1386 4.52365 7.43309C4.82523 6.73178 5.64201 6.40422 6.34569 6.71078C7.04518 7.01314 7.37189 7.83204 7.06613 8.53756C6.76455 9.23887 5.94777 9.56643 5.24409 9.25987V9.25987ZM5.58337 8.47036C5.85143 8.58795 6.16139 8.46196 6.27867 8.1932C6.39595 7.92443 6.27029 7.61367 6.00222 7.49608C5.73415 7.3785 5.4242 7.50448 5.30692 7.77325C5.18964 8.04202 5.3153 8.35278 5.58337 8.47036Z" fill="#87FFF3"/>
<path d="M2.85243 24.9575C2.65138 24.9575 2.44614 24.9365 2.24509 24.8945C1.14349 24.6636 0.263884 23.7607 0.0544546 22.6478V22.6478C-0.108901 21.7827 0.117284 20.905 0.678555 20.2415C0.946625 19.9223 1.26915 19.4058 1.26915 18.7591V18.0788C1.26915 17.4279 0.946625 16.9113 0.678555 16.5922C0.117284 15.9286 -0.108901 15.0509 0.0586432 14.1858C0.268073 13.073 1.15187 12.1743 2.25347 11.9433C3.11632 11.7627 3.99173 11.9727 4.6661 12.5229C5.33627 13.0688 5.72162 13.8793 5.72162 14.7486C5.72162 15.4331 5.47449 16.0966 5.0305 16.6174C4.65772 17.0499 4.45667 17.5958 4.45667 18.1628V18.6877C4.45667 19.2504 4.66191 19.8006 5.0305 20.2331C5.47449 20.7496 5.72162 21.4132 5.72162 22.1019C5.72162 22.967 5.33627 23.7775 4.6661 24.3276C4.1509 24.7476 3.51842 24.9659 2.86081 24.9659L2.85243 24.9575ZM0.984322 22.4714C1.12255 23.2105 1.70895 23.8069 2.43776 23.9623C3.02836 24.084 3.60219 23.9497 4.05456 23.5801C4.50274 23.2147 4.75824 22.673 4.75824 22.0977C4.75824 21.6399 4.59489 21.199 4.2975 20.8546C3.77811 20.2499 3.49329 19.4814 3.49329 18.6877V18.1628C3.49329 17.3691 3.77811 16.6006 4.30169 15.9958C4.59908 15.6515 4.76243 15.2063 4.76243 14.7528C4.76243 14.1733 4.50693 13.6357 4.05875 13.2704C3.60638 12.9008 3.03254 12.7622 2.44195 12.884C1.71314 13.0352 1.12673 13.6357 0.988511 14.3706C0.879607 14.9544 1.0304 15.5381 1.40318 15.9832C1.93932 16.6174 2.21996 17.3439 2.21996 18.0872V18.7675C2.21996 19.5108 1.93513 20.2373 1.40318 20.8672C1.0304 21.3082 0.879607 21.8961 0.988511 22.4798L0.984322 22.4714Z" fill="#87FFF3"/>
<path d="M2.861 17.6127C2.09867 17.6127 1.37824 17.3145 0.842095 16.7728C0.301767 16.231 0.000187958 15.5087 0.00437655 14.7444C0.00437655 13.9801 0.301767 13.262 0.842095 12.7203C1.38242 12.1785 2.09867 11.8804 2.861 11.8804C4.43591 11.8804 5.71762 13.1654 5.71762 14.7444C5.71762 15.5087 5.42023 16.2268 4.8799 16.7686C4.33957 17.3103 3.62332 17.6085 2.861 17.6085V17.6127ZM2.861 12.8379C2.35418 12.8379 1.87249 13.0352 1.51227 13.3964C1.15205 13.7575 0.955187 14.2363 0.955187 14.7486C0.955187 15.261 1.15205 15.7397 1.51227 16.1009C1.87249 16.462 2.34999 16.6594 2.861 16.6594C3.36782 16.6594 3.84951 16.462 4.20972 16.1009C4.56994 15.7397 4.76681 15.261 4.76681 14.7486C4.76681 14.2363 4.56994 13.7575 4.20972 13.3964C3.84951 13.0352 3.37201 12.8379 2.861 12.8379Z" fill="#87FFF3"/>
<path d="M2.86079 16.1344C2.09847 16.1344 1.47437 15.5087 1.47437 14.7444C1.47437 13.9801 2.09847 13.3544 2.86079 13.3544C3.62311 13.3544 4.24721 13.9801 4.24721 14.7444C4.24721 15.5087 3.62311 16.1344 2.86079 16.1344ZM2.86079 15.2735C3.1498 15.2735 3.38855 15.0384 3.38855 14.7444C3.38855 14.4546 3.15399 14.2153 2.86079 14.2153C2.57178 14.2153 2.33303 14.4504 2.33303 14.7444C2.33303 15.0342 2.56759 15.2735 2.86079 15.2735Z" fill="#87FFF3"/>
<path d="M19.1586 36.8421C18.1827 36.8421 17.2402 36.3255 16.7292 35.4772C16.2727 34.7213 16.1805 33.8226 16.4737 33.0037C16.7669 32.1848 17.4036 31.5549 18.2162 31.2694C18.8612 31.0426 19.5649 31.0552 20.2016 31.3072C20.7293 31.5129 21.3157 31.5255 21.8477 31.3408L22.3419 31.1686C22.8739 30.9838 23.3221 30.6058 23.6069 30.1145C23.9462 29.5224 24.4907 29.0688 25.1357 28.8421C25.9525 28.5523 26.8405 28.6531 27.5777 29.1066C28.3149 29.5602 28.8049 30.3203 28.918 31.198C29.0646 32.315 28.5076 33.4489 27.5316 34.0158C26.7693 34.4568 25.8687 34.5324 25.0603 34.2216C24.6708 34.0704 24.076 33.9402 23.4645 34.1544L22.8236 34.3812C22.2121 34.5954 21.8351 35.0699 21.6215 35.4311C21.1817 36.1786 20.4319 36.6825 19.5649 36.8169C19.4267 36.8379 19.2926 36.8463 19.1544 36.8463L19.1586 36.8421ZM19.1628 32.0631C18.9492 32.0631 18.7356 32.0967 18.5345 32.1723C17.99 32.3654 17.5669 32.7854 17.3701 33.3313C17.1732 33.8856 17.2319 34.4736 17.546 34.9901C17.9314 35.6284 18.6895 35.9854 19.4267 35.872C20.0089 35.7838 20.5115 35.4479 20.8047 34.9481C21.2236 34.2342 21.8142 33.7261 22.5137 33.4825L23.1545 33.2557C23.854 33.0079 24.6289 33.0373 25.4038 33.3313C25.9441 33.5371 26.5473 33.4867 27.0583 33.1885C27.7075 32.8106 28.0761 32.0631 27.9756 31.3198C27.896 30.7234 27.5777 30.2237 27.0792 29.9171C26.5892 29.6148 25.9944 29.5476 25.4499 29.7407C25.0185 29.8919 24.6582 30.1943 24.4321 30.589C24.0341 31.282 23.4058 31.8069 22.6561 32.0673L22.1618 32.2394C21.4163 32.4998 20.5953 32.4872 19.8539 32.1932C19.6319 32.1051 19.3932 32.0631 19.1586 32.0631H19.1628Z" fill="#87FFF3"/>
<path d="M26.0865 34.4106C24.9053 34.4106 23.7995 33.6715 23.3891 32.4956C22.8697 31.0048 23.6529 29.367 25.1399 28.8463C25.8603 28.5943 26.6352 28.6363 27.3221 28.9681C28.0091 29.2998 28.5285 29.8793 28.7798 30.6017C29.2992 32.0925 28.5159 33.7303 27.0289 34.251C26.719 34.3602 26.4007 34.4106 26.0865 34.4106ZM26.0865 29.6316C25.8729 29.6316 25.6593 29.6694 25.454 29.7408C24.4613 30.0893 23.9378 31.1812 24.2854 32.1765C24.6331 33.1717 25.7221 33.6967 26.7148 33.3481C27.7075 32.9996 28.2311 31.9077 27.8834 30.9124C27.7159 30.4295 27.3682 30.0431 26.9117 29.8206C26.652 29.6946 26.3671 29.6316 26.0865 29.6316V29.6316Z" fill="#87FFF3"/>
<path d="M25.6258 30.2321C26.3463 29.9801 27.1379 30.3623 27.3934 31.0846C27.6447 31.8069 27.2636 32.6006 26.5431 32.8568C25.8227 33.1088 25.0311 32.7266 24.7755 32.0043C24.52 31.282 24.9054 30.4883 25.6258 30.2321V30.2321ZM26.2583 32.0421C26.5348 31.9455 26.6772 31.6431 26.5808 31.3702C26.4845 31.093 26.1829 30.9502 25.9107 31.0468C25.6384 31.1434 25.4918 31.4458 25.5881 31.7187C25.6845 31.9959 25.986 32.1387 26.2583 32.0421Z" fill="#87FFF3"/>
<path d="M19.1586 36.7959C18.3586 36.7959 17.6005 36.4725 17.0559 35.8846C16.7711 35.578 16.2978 35.1959 15.6528 35.1203L14.9784 35.0405C14.3375 34.9649 13.7847 35.2211 13.437 35.4521C12.7166 35.9308 11.8202 36.0526 10.9825 35.788C9.90601 35.4479 9.11856 34.4652 9.01803 33.3397C8.94264 32.462 9.25259 31.6095 9.8725 31.009C10.4924 30.4043 11.3427 30.1145 12.2014 30.2195C12.8799 30.2993 13.5082 30.6226 13.9689 31.1266C14.3543 31.5465 14.8737 31.8153 15.4308 31.8825L15.9502 31.9455C16.5072 32.0127 17.0769 31.8741 17.546 31.5549C18.1115 31.1728 18.7984 31.0048 19.477 31.0888C20.3356 31.1896 21.0937 31.6683 21.5545 32.4032C22.0152 33.1339 22.12 34.0368 21.8435 34.8725C21.4833 35.9434 20.4864 36.7119 19.3639 36.7917C19.2927 36.7959 19.2256 36.8001 19.1544 36.8001L19.1586 36.7959ZM14.748 34.0746C14.8653 34.0746 14.9784 34.083 15.0915 34.0956L15.7659 34.1754C16.503 34.2636 17.1858 34.629 17.7513 35.2379C18.145 35.662 18.7104 35.8846 19.301 35.8384C20.0466 35.788 20.7084 35.2757 20.9471 34.566C21.1398 33.9948 21.0728 33.4069 20.7587 32.9114C20.4487 32.4242 19.9461 32.1051 19.3722 32.0337C18.9199 31.9791 18.4633 32.0883 18.0863 32.3444C17.4245 32.7896 16.6287 32.9828 15.8454 32.8904L15.3261 32.8274C14.5428 32.735 13.814 32.357 13.2736 31.7691C12.9679 31.4332 12.549 31.219 12.0966 31.1644C11.527 31.0972 10.9574 31.2862 10.5427 31.6893C10.1238 32.0967 9.91858 32.6552 9.97303 33.2557C10.04 33.999 10.5636 34.6542 11.2757 34.8809C11.8411 35.0573 12.4401 34.9775 12.9218 34.6584C13.504 34.272 14.1323 34.0746 14.7522 34.0746H14.748Z" fill="#87FFF3"/>
<path d="M19.1502 36.7959C19.0372 36.7959 18.9199 36.7875 18.8068 36.7749C18.0486 36.6867 17.3701 36.3045 16.901 35.704C16.4277 35.1035 16.2182 34.3518 16.3104 33.5959C16.4947 32.0253 17.923 30.8998 19.4853 31.0888C20.2435 31.177 20.922 31.5591 21.3911 32.1596C21.8645 32.7602 22.0739 33.5119 21.9817 34.272C21.8938 35.0321 21.5126 35.7124 20.9136 36.1827C20.4068 36.5859 19.7911 36.7959 19.1502 36.7959ZM19.1419 32.0211C18.1911 32.0211 17.3659 32.735 17.2486 33.705C17.19 34.2132 17.3282 34.7129 17.6424 35.1119C17.9565 35.5108 18.4089 35.767 18.9157 35.8258C19.9628 35.9476 20.9095 35.2001 21.0351 34.1544C21.0938 33.6463 20.9555 33.1465 20.6414 32.7476C20.3272 32.3486 19.8749 32.0924 19.3681 32.0337C19.2927 32.0253 19.2173 32.0211 19.1419 32.0211Z" fill="#87FFF3"/>
<path d="M19.3094 32.5544C20.0675 32.6468 20.6121 33.3355 20.5199 34.0956C20.4278 34.8557 19.7408 35.4016 18.9827 35.3093C18.2246 35.2169 17.68 34.5281 17.7722 33.768C17.8643 33.0079 18.5513 32.462 19.3094 32.5544ZM19.0832 34.4568C19.3722 34.4904 19.6361 34.2846 19.6696 33.9948C19.7031 33.705 19.4979 33.4405 19.2089 33.4069C18.9199 33.3733 18.656 33.5791 18.6225 33.8688C18.589 34.1586 18.7942 34.4232 19.0832 34.4568Z" fill="#87FFF3"/>
<path d="M11.8621 35.8846C11.4809 35.8846 11.0956 35.809 10.7395 35.6494C9.93533 35.2967 9.34055 34.6122 9.11018 33.7765C9.00128 33.3733 8.75415 32.8148 8.2222 32.4494L7.66093 32.0631C7.12898 31.6977 6.52163 31.6683 6.10696 31.7145C5.24411 31.8027 4.39801 31.4962 3.7781 30.8704C2.98227 30.0683 2.73933 28.8295 3.17076 27.788C3.51003 26.9733 4.18021 26.3644 5.00955 26.1208C5.83889 25.873 6.72268 26.0158 7.43474 26.503C8.0002 26.8893 8.4065 27.4688 8.58242 28.1282C8.72902 28.6783 9.06411 29.157 9.52904 29.4762L9.96047 29.7744C10.4254 30.0935 10.9909 30.2363 11.5563 30.1733C12.2349 30.1019 12.9176 30.2699 13.4831 30.6563C14.1951 31.1476 14.6433 31.9203 14.7145 32.7854C14.7857 33.6505 14.4632 34.4946 13.8265 35.1077C13.2946 35.6159 12.5825 35.8888 11.8621 35.8888V35.8846ZM6.40435 30.7444C7.07453 30.7444 7.69025 30.925 8.20126 31.2778L8.76253 31.6641C9.37406 32.0841 9.80968 32.7266 10.0317 33.5287C10.1825 34.0872 10.5846 34.545 11.1249 34.7802C11.8118 35.0825 12.6328 34.9355 13.1731 34.419C13.6087 34.0032 13.8182 33.4489 13.7721 32.8652C13.726 32.2899 13.4244 31.7691 12.9511 31.4416C12.5741 31.1812 12.1176 31.0678 11.6652 31.1182C10.8736 31.2064 10.0777 31.009 9.42851 30.5597L8.99709 30.2615C8.34367 29.8122 7.87455 29.1402 7.66931 28.3717C7.55202 27.9308 7.27977 27.5444 6.90698 27.2883C6.42948 26.9607 5.83889 26.8683 5.286 27.0321C4.72472 27.2001 4.28911 27.5948 4.05455 28.1534C3.76973 28.8421 3.92889 29.6652 4.45665 30.1985C4.87133 30.6185 5.44097 30.8284 6.01481 30.7654C6.14885 30.7528 6.27869 30.7444 6.40854 30.7444H6.40435Z" fill="#87FFF3"/>
<path d="M11.8621 35.8805C11.2925 35.8805 10.7354 35.7083 10.2537 35.3765C8.95522 34.482 8.62013 32.6972 9.5123 31.3954C10.4045 30.0936 12.1846 29.7576 13.4831 30.6521C14.7815 31.5466 15.1166 33.3314 14.2245 34.6332C13.793 35.2631 13.1438 35.6915 12.3941 35.8301C12.2181 35.8637 12.038 35.8805 11.8621 35.8805ZM10.2956 31.9329C10.0066 32.3529 9.90184 32.861 9.99399 33.365C10.0861 33.8647 10.371 34.3014 10.7898 34.5912C11.2087 34.881 11.7155 34.986 12.2181 34.8936C12.7208 34.8012 13.1522 34.5156 13.4412 34.0957C14.036 33.2264 13.814 32.0337 12.9469 31.4374C12.0799 30.8411 10.8903 31.0636 10.2956 31.9329Z" fill="#87FFF3"/>
<path d="M12.6496 31.8699C13.2778 32.3025 13.4412 33.1676 13.0098 33.8017C12.5783 34.4316 11.7155 34.5954 11.083 34.1629C10.4547 33.7303 10.2914 32.8652 10.7228 32.2311C11.1542 31.597 12.0171 31.4374 12.6496 31.8699V31.8699ZM11.5689 33.4531C11.8076 33.6169 12.1385 33.5581 12.3019 33.3146C12.4653 33.0752 12.4066 32.7434 12.1637 32.5797C11.9249 32.4159 11.594 32.4747 11.4307 32.7182C11.2673 32.9576 11.326 33.2894 11.5689 33.4531Z" fill="#87FFF3"/>
<path d="M5.78866 31.7313C4.86717 31.7313 3.96663 31.2694 3.43886 30.4883C2.94461 29.7576 2.80639 28.8631 3.0577 28.0316C3.17917 27.6326 3.27132 27.0279 3.01163 26.4316L2.74356 25.8058C2.48805 25.2095 1.98961 24.8652 1.61264 24.6762C0.837747 24.2898 0.280664 23.5759 0.0879892 22.715V22.715C-0.159138 21.6106 0.29323 20.4305 1.21472 19.7838C1.93516 19.2756 2.82314 19.1203 3.65667 19.3554C4.4902 19.5906 5.16456 20.1827 5.50803 20.9764C5.78029 21.6064 5.81798 22.3119 5.61274 22.967C5.44101 23.5087 5.47033 24.0967 5.69652 24.6132L5.90176 25.0961C6.12375 25.6127 6.53005 26.0368 7.04105 26.2846C7.65678 26.5827 8.14265 27.0951 8.41491 27.725C8.75838 28.5187 8.72487 29.4174 8.32695 30.1859C7.92904 30.9544 7.20441 31.4961 6.34156 31.6725C6.15726 31.7103 5.97296 31.7271 5.78866 31.7271V31.7313ZM1.01786 22.5092C1.1477 23.0888 1.5163 23.5675 2.03569 23.8237C2.77707 24.1932 3.32158 24.7476 3.61478 25.4279L3.88286 26.0536C4.17606 26.7339 4.20538 27.515 3.96663 28.3087C3.79908 28.8631 3.89123 29.4636 4.22632 29.9507C4.64518 30.5723 5.42007 30.8872 6.14888 30.7402C6.73948 30.6185 7.21279 30.2657 7.48086 29.745C7.74893 29.2326 7.76987 28.6321 7.5395 28.103C7.35939 27.683 7.03268 27.3429 6.6222 27.1413C5.90595 26.7927 5.34049 26.2006 5.02634 25.4699L4.8211 24.9869C4.50696 24.2604 4.46507 23.4373 4.70382 22.6772C4.83785 22.2405 4.81691 21.7701 4.63261 21.3502C4.40224 20.8211 3.95406 20.4263 3.39698 20.2667C2.83152 20.1071 2.25349 20.2121 1.75924 20.5565C1.1477 20.989 0.850313 21.7701 1.01367 22.5008L1.01786 22.5092Z" fill="#87FFF3"/>
<path d="M5.78868 31.7271C5.43265 31.7271 5.07662 31.6599 4.73315 31.5255C4.02528 31.2442 3.4682 30.7024 3.16243 29.9969C2.86085 29.2956 2.84828 28.5145 3.12892 27.8048C3.40956 27.0951 3.94988 26.5365 4.65357 26.23C6.09863 25.6042 7.78245 26.2762 8.41074 27.725C8.71231 28.4263 8.72488 29.2074 8.44424 29.9171C8.16361 30.6268 7.62328 31.1854 6.9196 31.4919C6.55519 31.6515 6.17403 31.7271 5.78868 31.7271ZM5.03054 27.1077C4.56142 27.3092 4.2012 27.683 4.01271 28.1575C3.82423 28.6321 3.8326 29.1528 4.03366 29.619C4.23471 30.0893 4.60749 30.4505 5.0808 30.6394C5.55412 30.8284 6.0735 30.82 6.53843 30.6184C7.00756 30.4169 7.36778 30.0431 7.55626 29.5686C7.74475 29.094 7.73637 28.5733 7.53532 28.1071C7.11646 27.1413 5.99392 26.6919 5.03054 27.1119V27.1077Z" fill="#87FFF3"/>
<path d="M7.06197 28.3088C7.36355 29.0101 7.04103 29.829 6.34153 30.1355C5.64204 30.4379 4.82526 30.1145 4.51949 29.4132C4.21791 28.7119 4.54044 27.893 5.23993 27.5864C5.93943 27.2799 6.7562 27.6074 7.06197 28.3088ZM5.30695 29.0689C5.42423 29.3376 5.73418 29.4594 6.00225 29.346C6.27032 29.2284 6.39179 28.9177 6.2787 28.6489C6.16142 28.3802 5.85147 28.2584 5.5834 28.3718C5.31533 28.4893 5.19386 28.8001 5.30695 29.0689Z" fill="#87FFF3"/>
<path d="M2.85668 24.9617C2.65563 24.9617 2.45458 24.9407 2.25353 24.8987C1.15193 24.6678 0.268134 23.7691 0.0587043 22.6562C-0.104651 21.7911 0.121533 20.9134 0.678616 20.2499C0.946686 19.9308 1.26921 19.4142 1.26921 18.7633V18.083C1.26921 17.4363 0.946686 16.9197 0.678616 16.6006C0.117345 15.937 -0.108839 15.0635 0.0545157 14.1943H0.0503271C0.259757 13.0814 1.13936 12.1785 2.24096 11.9475C3.10381 11.7669 3.98342 11.9769 4.65359 12.5229C5.32377 13.0688 5.70912 13.8793 5.70912 14.7486C5.70912 15.4331 5.46618 16.0966 5.018 16.6174C4.64521 17.0499 4.44416 17.6 4.44416 18.1628V18.6877C4.44416 19.2504 4.6494 19.8006 5.02219 20.2331C5.46618 20.7497 5.71331 21.4132 5.71331 22.1019C5.71331 22.967 5.32795 23.7775 4.65778 24.3276C4.14258 24.7476 3.50592 24.9701 2.8525 24.9701L2.85668 24.9617ZM0.984383 14.3706C0.87548 14.9544 1.02627 15.5381 1.39905 15.9832C1.93519 16.6174 2.21583 17.3397 2.21583 18.083V18.7633C2.21583 19.5066 1.93519 20.2331 1.39905 20.8672C1.02627 21.3082 0.87548 21.8961 0.984383 22.4798C1.1268 23.219 1.70901 23.8153 2.43783 23.9665C3.02423 24.0882 3.60225 23.9539 4.05462 23.5801C4.5028 23.2148 4.75831 22.673 4.75831 22.0977C4.75831 21.6399 4.59495 21.199 4.29756 20.8546C3.77818 20.2499 3.49335 19.4814 3.48916 18.6877V18.1628C3.48916 17.3691 3.77399 16.6006 4.29337 15.9958C4.59076 15.6515 4.75412 15.2063 4.75412 14.7528C4.75412 14.1733 4.49861 13.6357 4.05043 13.2704C3.59388 12.9008 3.02004 12.7664 2.43364 12.8882C1.70482 13.0394 1.11842 13.6399 0.980195 14.379L0.984383 14.3706Z" fill="#87FFF3"/>
<path d="M2.86081 24.9617C1.2859 24.9617 0 23.6767 0 22.0977C0 20.5187 1.28171 19.2336 2.85662 19.2336C4.43153 19.2336 5.71324 20.5187 5.71324 22.0977C5.71324 22.862 5.41585 23.5843 4.87552 24.1218C4.33519 24.6636 3.61894 24.9617 2.85662 24.9617H2.86081ZM2.86081 19.7082V20.1869C1.80947 20.1869 0.954999 21.0436 0.954999 22.0977C0.954999 23.1518 1.80947 24.0085 2.86081 24.0085C3.37182 24.0085 3.84932 23.8111 4.20954 23.4499C4.56976 23.0888 4.76662 22.61 4.76662 22.0977C4.76662 21.0436 3.91215 20.1869 2.86081 20.1869V19.7082V19.7082Z" fill="#87FFF3"/>
<path d="M4.24306 22.0977C4.24306 22.862 3.62315 23.4877 2.85664 23.4877C2.09432 23.4877 1.47021 22.8662 1.47021 22.0977C1.47021 21.3334 2.09013 20.7076 2.85664 20.7076C3.62315 20.7076 4.24306 21.3292 4.24306 22.0977ZM2.32888 22.0977C2.32888 22.3874 2.56763 22.6268 2.85664 22.6268C3.14565 22.6268 3.3844 22.3874 3.3844 22.0977C3.3844 21.8079 3.14565 21.5685 2.85664 21.5685C2.56763 21.5685 2.32888 21.8079 2.32888 22.0977Z" fill="#87FFF3"/>
</g>
<path d="M16.368 24.6451C18.368 24.6451 20.016 24.0851 21.28 22.5651L19.408 20.7251C18.608 21.6371 17.68 22.0211 16.672 22.0211C14.96 22.0211 13.936 21.0131 13.936 19.5091C13.936 17.3011 15.376 15.6211 17.552 15.6211C18.672 15.6211 19.488 16.0851 20.016 16.9331L22.304 15.1091C21.504 13.7491 19.824 12.9971 17.76 12.9971C13.6 12.9971 10.736 15.8291 10.736 19.7171C10.736 22.6451 12.928 24.6451 16.368 24.6451ZM34.5496 13.2211H31.3336L27.7496 17.6851L25.9896 13.2211H22.8056L25.6536 20.3731L24.8536 24.4211H28.0216L28.8056 20.4531L34.5496 13.2211ZM38.743 24.6451C40.743 24.6451 42.391 24.0851 43.655 22.5651L41.783 20.7251C40.983 21.6371 40.055 22.0211 39.047 22.0211C37.335 22.0211 36.311 21.0131 36.311 19.5091C36.311 17.3011 37.751 15.6211 39.927 15.6211C41.047 15.6211 41.863 16.0851 42.391 16.9331L44.679 15.1091C43.879 13.7491 42.199 12.9971 40.135 12.9971C35.975 12.9971 33.111 15.8291 33.111 19.7171C33.111 22.6451 35.303 24.6451 38.743 24.6451ZM44.4435 24.4211H52.9555L53.4675 21.9091H48.1235L49.8515 13.2211H46.6835L44.4435 24.4211ZM64.7211 15.6691L65.2171 13.2211H56.4491L54.2091 24.4211H63.1851L63.6971 21.9731H57.8251L58.2251 19.9251H63.2171L63.6811 17.5571H58.7051L59.0731 15.6691H64.7211ZM64.9591 24.4211H73.4711L73.9831 21.9091H68.6391L70.3671 13.2211H67.1991L64.9591 24.4211ZM74.7248 24.4211H77.8928L80.1328 13.2211H76.9648L74.7248 24.4211ZM84.3226 24.6451C87.6026 24.6451 89.7146 23.0611 89.7146 20.6611C89.7146 17.2051 84.2586 18.0851 84.2746 16.5491C84.2746 15.9411 84.9786 15.4611 86.2906 15.4611C87.3946 15.4611 88.4826 15.7491 89.3626 16.3091L90.5146 13.9571C89.5066 13.3331 88.0666 12.9971 86.4826 12.9971C83.1706 12.9971 81.1066 14.5811 81.1066 16.9971C81.1066 20.5171 86.5466 19.6851 86.5466 21.1891C86.5466 21.7971 85.8426 22.1811 84.6266 22.1811C83.3466 22.1811 82.0346 21.7971 80.8986 21.0771L79.6506 23.4451C80.6586 24.1331 82.4026 24.6451 84.3226 24.6451ZM92.7178 24.4211H95.8858L97.6298 15.7331H101.054L101.566 13.2211H91.5338L91.0218 15.7331H94.4618L92.7178 24.4211Z" fill="#87FFF3"/>
<defs>
<clipPath id="clip0_34_1145">
<rect width="28.9474" height="36.8421" fill="white"/>
</clipPath>
</defs>
</svg>
