<svg width="224" height="88" viewBox="0 0 224 88" fill="none" xmlns="http://www.w3.org/2000/svg">
<g clip-path="url(#clip0_14_1493)">
<path d="M24.1599 46.82C24.1599 38.27 30.4599 32.04 39.6099 32.04C44.1499 32.04 47.8399 33.69 49.5999 36.68L44.5699 40.69C43.4099 38.83 41.6099 37.81 39.1499 37.81C34.3599 37.81 31.1999 41.5 31.1999 46.36C31.1999 49.67 33.4499 51.88 37.2199 51.88C39.4399 51.88 41.4799 51.04 43.2399 49.03L47.3599 53.08C44.5799 56.42 40.9599 57.65 36.5599 57.65C28.9999 57.65 24.1699 53.25 24.1699 46.81L24.1599 46.82Z" fill="#FF2615"/>
<path d="M63.8899 48.44L62.1699 57.17H55.2L56.9599 48.27L50.7 32.54H57.7L61.57 42.36L69.4499 32.54H76.5199L63.8899 48.44Z" fill="#FF2615"/>
<path d="M73.3499 46.82C73.3499 38.27 79.6499 32.04 88.7999 32.04C93.3399 32.04 97.0299 33.69 98.7899 36.68L93.7599 40.69C92.5999 38.83 90.7999 37.81 88.3399 37.81C83.5499 37.81 80.3899 41.5 80.3899 46.36C80.3899 49.67 82.6399 51.88 86.4099 51.88C88.6299 51.88 90.6699 51.04 92.4299 49.03L96.5499 53.08C93.7699 56.42 90.1499 57.65 85.7499 57.65C78.1899 57.65 73.3599 53.25 73.3599 46.81L73.3499 46.82Z" fill="#FF2615"/>
<path d="M103.19 32.54H110.16L106.36 51.65H118.11L116.98 57.17H98.26L103.19 32.54Z" fill="#FF2615"/>
<path d="M130.42 37.92L129.61 42.07H140.55L139.53 47.28H128.55L127.67 51.78H140.58L139.45 57.16H119.71L124.64 32.53H143.92L142.83 37.91H130.41L130.42 37.92Z" fill="#FF2615"/>
<path d="M148.3 32.54H155.27L151.47 51.65H163.22L162.09 57.17H143.37L148.3 32.54Z" fill="#FF2615"/>
<path d="M169.76 32.54H176.73L171.8 57.17H164.83L169.76 32.54Z" fill="#FF2615"/>
<path d="M175.67 55.02L178.41 49.81C180.91 51.39 183.79 52.24 186.61 52.24C189.43 52.24 190.83 51.4 190.83 50.06C190.83 46.75 178.87 48.58 178.87 40.84C178.87 35.53 183.41 32.04 190.69 32.04C194.17 32.04 197.34 32.78 199.56 34.15L197.03 39.32C195.1 38.09 192.7 37.46 190.27 37.46C187.39 37.46 185.84 38.51 185.84 39.85C185.8 43.23 197.8 41.29 197.8 48.89C197.8 54.17 193.16 57.65 185.94 57.65C181.72 57.65 177.88 56.52 175.67 55.01V55.02Z" fill="#FF2615"/>
<path d="M208.22 38.06H200.65L201.78 32.54H223.84L222.71 38.06H215.18L211.34 57.17H204.37L208.21 38.06H208.22Z" fill="#FF2615"/>
<path d="M62.28 19.44C61.52 19.44 60.76 19.31 60.02 19.05C58.48 18.51 57.18 17.43 56.37 16.02C55.69 14.85 54.62 13.95 53.35 13.51L52.17 13.1C50.9 12.65 49.51 12.68 48.24 13.18C46.72 13.77 45.04 13.8 43.5 13.27C41.55 12.59 40.03 11.08 39.34 9.13999C38.64 7.19999 38.86 5.04999 39.95 3.24999C41.34 0.949992 44.06 -0.330008 46.73 0.0799922C48.8 0.389992 50.59 1.59999 51.64 3.37999C52.14 4.23999 53.05 5.36999 54.51 5.87999L56.04 6.41999C57.5 6.92999 58.92 6.60999 59.85 6.25999C61.78 5.51999 63.93 5.69999 65.75 6.74999C68.08 8.09999 69.41 10.8 69.06 13.46C68.78 15.54 67.62 17.36 65.86 18.44C64.77 19.11 63.54 19.45 62.29 19.45L62.28 19.44ZM50.32 10.51C51.2 10.51 52.08 10.66 52.92 10.95L54.1 11.36C55.88 11.99 57.39 13.24 58.33 14.88C58.87 15.82 59.74 16.54 60.76 16.9C62.06 17.35 63.48 17.2 64.65 16.48C65.84 15.75 66.6 14.56 66.79 13.14C67.02 11.37 66.14 9.58999 64.6 8.68999C63.38 7.97999 61.94 7.85999 60.65 8.34999C58.81 9.04999 56.95 9.11999 55.28 8.52999L53.75 7.98999C52.08 7.40999 50.67 6.19999 49.67 4.49999C48.97 3.30999 47.77 2.50999 46.38 2.29999C44.62 2.02999 42.81 2.87999 41.89 4.39999C41.15 5.62999 41 7.02999 41.47 8.34999C41.94 9.64999 42.95 10.65 44.25 11.11C45.28 11.47 46.4 11.45 47.41 11.05C48.34 10.68 49.33 10.5 50.31 10.5L50.32 10.51Z" fill="#FF2615"/>
<path d="M62.28 19.45C61.52 19.45 60.76 19.32 60.02 19.06C56.47 17.82 54.6 13.92 55.84 10.37C56.44 8.64997 57.68 7.26997 59.32 6.47997C60.96 5.68997 62.82 5.58997 64.53 6.18997C66.25 6.78997 67.63 8.02997 68.42 9.66997C69.21 11.31 69.31 13.16 68.71 14.88C68.11 16.6 66.87 17.98 65.23 18.77C64.29 19.22 63.29 19.45 62.28 19.45ZM62.28 8.06997C61.61 8.06997 60.94 8.21997 60.31 8.51997C59.21 9.04997 58.39 9.96997 57.99 11.12C57.16 13.49 58.41 16.09 60.78 16.92C61.93 17.32 63.16 17.25 64.26 16.73C65.36 16.2 66.18 15.28 66.58 14.13C67.41 11.76 66.16 9.15997 63.79 8.32997C63.3 8.15997 62.79 8.06997 62.28 8.06997Z" fill="#FF2615"/>
<path d="M59.1601 11.53C59.7601 9.81002 61.6501 8.90002 63.3801 9.50002C65.1001 10.1 66.0101 11.99 65.4101 13.72C64.8101 15.44 62.9201 16.35 61.1901 15.75C59.4701 15.15 58.5601 13.26 59.1601 11.53ZM61.0901 12.21C60.8601 12.86 61.2101 13.59 61.8601 13.81C62.5201 14.04 63.2401 13.69 63.4601 13.04C63.6901 12.39 63.3401 11.66 62.6901 11.44C62.0301 11.21 61.3101 11.56 61.0901 12.21Z" fill="#FF2615"/>
<path d="M28.33 15.82C26.57 15.82 24.87 15.14 23.59 13.89C22.11 12.45 21.36 10.43 21.55 8.33001C21.79 5.65001 23.67 3.31001 26.24 2.50001C28.24 1.87001 30.38 2.16001 32.1 3.30001C32.93 3.85001 34.24 4.47001 35.78 4.28001L37.39 4.09001C38.92 3.91001 40.06 3.00001 40.74 2.27001C42.14 0.770009 44.15 -0.0199908 46.24 0.130009C48.93 0.320009 51.31 2.15001 52.16 4.70001C52.83 6.69001 52.58 8.83001 51.47 10.58C50.36 12.33 48.56 13.46 46.51 13.71C44.89 13.9 43.25 13.51 41.9 12.6C40.78 11.84 39.42 11.51 38.08 11.67L36.84 11.82C35.51 11.98 34.27 12.62 33.35 13.62C32.25 14.82 30.75 15.59 29.13 15.78C28.86 15.81 28.59 15.83 28.32 15.83L28.33 15.82ZM28.34 4.45001C27.87 4.45001 27.39 4.52001 26.92 4.67001C25.22 5.21001 23.97 6.76001 23.81 8.53001C23.69 9.96001 24.17 11.28 25.17 12.26C26.16 13.22 27.52 13.68 28.88 13.51C29.96 13.38 30.96 12.87 31.7 12.07C32.98 10.67 34.72 9.77001 36.6 9.55001L37.84 9.40001C39.71 9.18001 41.62 9.64001 43.19 10.7C44.09 11.31 45.19 11.57 46.26 11.44C47.63 11.28 48.83 10.52 49.57 9.35001C50.32 8.17001 50.48 6.77001 50.02 5.41001C49.45 3.72001 47.87 2.50001 46.09 2.38001C44.7 2.29001 43.34 2.81001 42.4 3.81001C41.05 5.25001 39.41 6.13001 37.66 6.34001L36.05 6.53001C34.29 6.74001 32.5 6.27001 30.85 5.18001C30.1 4.69001 29.23 4.43001 28.35 4.43001L28.34 4.45001Z" fill="#FF2615"/>
<path d="M45.7 13.75C44.18 13.75 42.71 13.24 41.49 12.29C40.06 11.16 39.15 9.55001 38.94 7.74001C38.72 5.93001 39.23 4.15001 40.35 2.71001C41.48 1.28001 43.09 0.370008 44.9 0.160008C46.71 -0.0599923 48.49 0.450008 49.92 1.57001C51.35 2.70001 52.26 4.31001 52.47 6.12001C52.91 9.85001 50.24 13.26 46.5 13.7C46.23 13.73 45.95 13.75 45.68 13.75H45.7ZM45.72 2.38001C45.54 2.38001 45.36 2.39001 45.17 2.41001C43.96 2.55001 42.88 3.16001 42.13 4.11001C41.38 5.07001 41.04 6.26001 41.19 7.46001C41.34 8.66001 41.94 9.75001 42.89 10.5C43.84 11.25 45.03 11.59 46.24 11.44C48.73 11.14 50.52 8.88001 50.22 6.38001C50.08 5.17001 49.47 4.09001 48.52 3.34001C47.71 2.70001 46.73 2.36001 45.71 2.36001L45.72 2.38001Z" fill="#FF2615"/>
<path d="M42.43 7.32001C42.21 5.51001 43.51 3.86001 45.32 3.65001C47.13 3.43001 48.78 4.73001 48.99 6.54001C49.21 8.35001 47.91 10 46.1 10.21C44.29 10.43 42.64 9.13001 42.43 7.32001ZM44.46 7.08001C44.54 7.77001 45.17 8.26001 45.86 8.18001C46.55 8.10001 47.04 7.47001 46.96 6.78001C46.88 6.09001 46.25 5.60001 45.56 5.68001C44.87 5.76001 44.38 6.39001 44.46 7.08001Z" fill="#FF2615"/>
<path d="M13.9101 25.83C13.2601 25.83 12.6101 25.74 11.9601 25.55C9.98005 24.96 8.38005 23.52 7.57005 21.58C6.54005 19.1 7.12005 16.15 9.02005 14.24C10.5001 12.75 12.5201 12.02 14.5801 12.23C15.5701 12.33 17.0201 12.27 18.2901 11.4L19.6301 10.48C20.9101 9.61004 21.4901 8.28004 21.7501 7.32004C22.3001 5.32004 23.7101 3.70004 25.6401 2.86004C28.1101 1.78004 31.0701 2.30004 33.0101 4.16004C34.5301 5.61004 35.3001 7.63004 35.1301 9.69004C34.9601 11.75 33.8901 13.6 32.1901 14.76C30.8401 15.68 29.2101 16.09 27.5901 15.91C26.2501 15.76 24.8901 16.1 23.7801 16.86L22.7501 17.57C21.6401 18.33 20.8401 19.47 20.4901 20.78C20.0701 22.36 19.1001 23.73 17.7501 24.65C16.6001 25.44 15.2601 25.85 13.9001 25.85L13.9101 25.83ZM10.6301 15.83C9.37005 17.1 8.98005 19.05 9.67005 20.7C10.2201 22.02 11.2601 22.97 12.6101 23.37C13.9301 23.76 15.3401 23.54 16.4801 22.76C17.3801 22.14 18.0301 21.23 18.3001 20.18C18.7901 18.34 19.9101 16.74 21.4701 15.68L22.5001 14.97C24.0601 13.9 25.9501 13.43 27.8401 13.64C28.9201 13.76 30.0101 13.49 30.9101 12.87C32.0401 12.09 32.7601 10.86 32.8701 9.49004C32.9801 8.10004 32.4801 6.78004 31.4401 5.79004C30.1601 4.56004 28.1901 4.21004 26.5601 4.93004C25.2701 5.50004 24.3201 6.58004 23.9501 7.92004C23.4301 9.82004 22.3801 11.36 20.9201 12.36L19.5801 13.28C18.1201 14.28 16.3101 14.7 14.3501 14.5C12.9801 14.36 11.6201 14.85 10.6301 15.85V15.83Z" fill="#FF2615"/>
<path d="M28.35 15.93C26.17 15.93 24.03 14.89 22.71 12.97C21.68 11.47 21.3 9.65 21.63 7.86C21.97 6.07 22.98 4.52 24.48 3.48C27.58 1.35 31.84 2.15 33.96 5.25C36.09 8.35 35.29 12.61 32.19 14.73C31.01 15.54 29.67 15.92 28.34 15.92L28.35 15.93ZM24.59 11.68C26.01 13.75 28.85 14.28 30.92 12.86C32.99 11.44 33.52 8.6 32.1 6.53C30.68 4.46 27.84 3.93 25.77 5.35C24.77 6.04 24.09 7.07 23.87 8.27C23.65 9.46 23.9 10.67 24.59 11.68Z" fill="#FF2615"/>
<path d="M25.61 10.98C24.58 9.48002 24.96 7.41002 26.47 6.38002C27.97 5.35002 30.04 5.73002 31.07 7.24002C32.1 8.74002 31.72 10.81 30.21 11.84C28.71 12.87 26.64 12.49 25.61 10.98ZM27.3 9.82002C27.69 10.39 28.48 10.54 29.05 10.15C29.62 9.76002 29.77 8.97002 29.38 8.40002C28.99 7.83002 28.2 7.68002 27.63 8.07002C27.06 8.46002 26.91 9.25002 27.3 9.82002Z" fill="#FF2615"/>
<path d="M6.90005 41.8999C5.50005 41.8999 4.10005 41.4599 2.91005 40.6199C0.710052 39.0699 -0.369949 36.2699 0.220051 33.6399C0.680051 31.5899 2.00005 29.8899 3.86005 28.9699C4.75005 28.5299 5.95005 27.6999 6.56005 26.2799L7.20005 24.7899C7.81005 23.3699 7.60005 21.9399 7.31005 20.9799C6.71005 18.9999 7.04005 16.8699 8.22005 15.1299C9.73005 12.8999 12.5101 11.7699 15.1501 12.2999C17.2101 12.7199 18.9401 14.0099 19.8901 15.8499C20.8401 17.6799 20.9201 19.8199 20.1001 21.7099C19.4501 23.2099 18.2901 24.4299 16.8201 25.1399C15.6001 25.7299 14.6301 26.7399 14.1001 27.9699L13.6101 29.1199C13.0801 30.3499 13.0101 31.7499 13.4101 33.0399C13.9001 34.5999 13.8101 36.2799 13.1601 37.7799C12.3401 39.6699 10.7301 41.0799 8.75005 41.6399C8.14005 41.8099 7.52005 41.8999 6.91005 41.8999H6.90005ZM13.8101 14.4499C12.3501 14.4499 10.9201 15.1799 10.0901 16.4099C9.30005 17.5799 9.07005 19.0099 9.48005 20.3299C10.0501 22.2199 9.99005 24.0799 9.28005 25.6999L8.64005 27.1899C7.94005 28.8099 6.63005 30.1299 4.87005 31.0099C3.64005 31.6199 2.75005 32.7599 2.44005 34.1399C2.05005 35.8799 2.76005 37.7499 4.22005 38.7699C5.39005 39.5999 6.78005 39.8399 8.13005 39.4599C9.46005 39.0899 10.5301 38.1499 11.0801 36.8799C11.5101 35.8799 11.5701 34.7599 11.2501 33.7199C10.6801 31.9099 10.7801 29.9499 11.5301 28.2199L12.0201 27.0699C12.7701 25.3399 14.1201 23.9299 15.8301 23.0899C16.8101 22.6199 17.5801 21.7999 18.0101 20.7999C18.5601 19.5399 18.5001 18.1099 17.8701 16.8899C17.2201 15.6499 16.0901 14.8099 14.6901 14.5199C14.4001 14.4599 14.1101 14.4299 13.8201 14.4299L13.8101 14.4499Z" fill="#FF2615"/>
<path d="M13.8301 25.8299C12.9101 25.8299 12.0001 25.6399 11.1301 25.2699C7.68009 23.7799 6.08009 19.7599 7.57009 16.2999C9.06009 12.8499 13.0801 11.2499 16.5401 12.7399C18.2101 13.4599 19.5001 14.7899 20.1801 16.4899C20.8501 18.1799 20.8201 20.0399 20.1001 21.7099C19.3801 23.3799 18.0501 24.6699 16.3501 25.3499C15.5401 25.6699 14.6801 25.8299 13.8301 25.8299ZM13.8301 14.4499C12.0701 14.4499 10.3901 15.4799 9.65009 17.1999C8.66009 19.4999 9.72009 22.1899 12.0201 23.1799C13.1401 23.6599 14.3701 23.6799 15.5001 23.2299C16.6301 22.7799 17.5201 21.9199 18.0001 20.7999C18.4801 19.6799 18.5001 18.4499 18.0501 17.3199C17.6001 16.1899 16.7401 15.2999 15.6201 14.8199C15.0301 14.5699 14.4201 14.4499 13.8201 14.4499H13.8301Z" fill="#FF2615"/>
<path d="M12.52 22.05C10.85 21.33 10.07 19.38 10.8 17.7C11.52 16.03 13.47 15.25 15.15 15.98C16.82 16.7 17.6 18.65 16.87 20.33C16.15 22 14.2 22.78 12.52 22.05ZM13.33 20.17C13.97 20.45 14.71 20.15 14.99 19.51C15.27 18.87 14.97 18.13 14.33 17.85C13.69 17.57 12.95 17.87 12.67 18.51C12.39 19.15 12.69 19.89 13.33 20.17Z" fill="#FF2615"/>
<path d="M6.80999 59.4299C6.32999 59.4299 5.83999 59.3799 5.35999 59.2799C2.72999 58.7299 0.62999 56.5799 0.12999 53.9299C-0.26001 51.8699 0.27999 49.7799 1.61999 48.1999C2.25999 47.4399 3.02999 46.2099 3.02999 44.6699V43.0499C3.02999 41.4999 2.25999 40.2699 1.61999 39.5099C0.27999 37.9299 -0.26001 35.8399 0.13999 33.7799C0.63999 31.1299 2.74999 28.9899 5.37999 28.4399C7.43999 28.0099 9.52999 28.5099 11.14 29.8199C12.74 31.1199 13.66 33.0499 13.66 35.1199C13.66 36.7499 13.07 38.3299 12.01 39.5699C11.12 40.5999 10.64 41.8999 10.64 43.2499V44.4999C10.64 45.8399 11.13 47.1499 12.01 48.1799C13.07 49.4099 13.66 50.9899 13.66 52.6299C13.66 54.6899 12.74 56.6199 11.14 57.9299C9.90999 58.9299 8.39999 59.4499 6.82999 59.4499L6.80999 59.4299ZM2.34999 53.5099C2.67999 55.2699 4.07999 56.6899 5.81999 57.0599C7.22999 57.3499 8.59999 57.0299 9.67999 56.1499C10.75 55.2799 11.36 53.9899 11.36 52.6199C11.36 51.5299 10.97 50.4799 10.26 49.6599C9.01999 48.2199 8.33999 46.3899 8.33999 44.4999V43.2499C8.33999 41.3599 9.01999 39.5299 10.27 38.0899C10.98 37.2699 11.37 36.2099 11.37 35.1299C11.37 33.7499 10.76 32.4699 9.68999 31.5999C8.60999 30.7199 7.23999 30.3899 5.82999 30.6799C4.08999 31.0399 2.68999 32.4699 2.35999 34.2199C2.09999 35.6099 2.45999 36.9999 3.34999 38.0599C4.62999 39.5699 5.29999 41.2999 5.29999 43.0699V44.6899C5.29999 46.4599 4.61999 48.1899 3.34999 49.6899C2.45999 50.7399 2.09999 52.1399 2.35999 53.5299L2.34999 53.5099Z" fill="#FF2615"/>
<path d="M6.82987 41.9399C5.00987 41.9399 3.28987 41.2299 2.00987 39.9399C0.719868 38.6499 -0.000131584 36.9299 0.00986842 35.1099C0.00986842 33.2899 0.719868 31.5799 2.00987 30.2899C3.29987 28.9999 5.00987 28.2899 6.82987 28.2899C10.5899 28.2899 13.6499 31.3499 13.6499 35.1099C13.6499 36.9299 12.9399 38.6399 11.6499 39.9299C10.3599 41.2199 8.64987 41.9299 6.82987 41.9299V41.9399ZM6.82987 30.5699C5.61987 30.5699 4.46987 31.0399 3.60987 31.8999C2.74987 32.7599 2.27987 33.8999 2.27987 35.1199C2.27987 36.3399 2.74987 37.4799 3.60987 38.3399C4.46987 39.1999 5.60987 39.6699 6.82987 39.6699C8.03987 39.6699 9.18987 39.1999 10.0499 38.3399C10.9099 37.4799 11.3799 36.3399 11.3799 35.1199C11.3799 33.8999 10.9099 32.7599 10.0499 31.8999C9.18987 31.0399 8.04987 30.5699 6.82987 30.5699Z" fill="#FF2615"/>
<path d="M6.83002 38.4199C5.01002 38.4199 3.52002 36.9299 3.52002 35.1099C3.52002 33.2899 5.01002 31.7999 6.83002 31.7999C8.65002 31.7999 10.14 33.2899 10.14 35.1099C10.14 36.9299 8.65002 38.4199 6.83002 38.4199ZM6.83002 36.3699C7.52002 36.3699 8.09002 35.8099 8.09002 35.1099C8.09002 34.4199 7.53002 33.8499 6.83002 33.8499C6.14002 33.8499 5.57002 34.4099 5.57002 35.1099C5.57002 35.7999 6.13002 36.3699 6.83002 36.3699Z" fill="#FF2615"/>
<path d="M45.74 87.7299C43.41 87.7299 41.16 86.4999 39.94 84.4799C38.85 82.6799 38.63 80.5399 39.33 78.5899C40.03 76.6399 41.55 75.1399 43.49 74.4599C45.03 73.9199 46.71 73.9499 48.23 74.5499C49.49 75.0399 50.89 75.0699 52.16 74.6299L53.34 74.2199C54.61 73.7799 55.68 72.8799 56.36 71.7099C57.17 70.2999 58.47 69.2199 60.01 68.6799C61.96 67.9899 64.08 68.2299 65.84 69.3099C67.6 70.3899 68.77 72.1999 69.04 74.2899C69.39 76.9499 68.06 79.6499 65.73 80.9999C63.91 82.0499 61.76 82.2299 59.83 81.4899C58.9 81.1299 57.48 80.8199 56.02 81.3299L54.49 81.8699C53.03 82.3799 52.13 83.5099 51.62 84.3699C50.57 86.1499 48.78 87.3499 46.71 87.6699C46.38 87.7199 46.06 87.7399 45.73 87.7399L45.74 87.7299ZM45.75 76.3499C45.24 76.3499 44.73 76.4299 44.25 76.6099C42.95 77.0699 41.94 78.0699 41.47 79.3699C41 80.6899 41.14 82.0899 41.89 83.3199C42.81 84.8399 44.62 85.6899 46.38 85.4199C47.77 85.2099 48.97 84.4099 49.67 83.2199C50.67 81.5199 52.08 80.3099 53.75 79.7299L55.28 79.1899C56.95 78.5999 58.8 78.6699 60.65 79.3699C61.94 79.8599 63.38 79.7399 64.6 79.0299C66.15 78.1299 67.03 76.3499 66.79 74.5799C66.6 73.1599 65.84 71.9699 64.65 71.2399C63.48 70.5199 62.06 70.3599 60.76 70.8199C59.73 71.1799 58.87 71.8999 58.33 72.8399C57.38 74.4899 55.88 75.7399 54.09 76.3599L52.91 76.7699C51.13 77.3899 49.17 77.3599 47.4 76.6599C46.87 76.4499 46.3 76.3499 45.74 76.3499H45.75Z" fill="#FF2615"/>
<path d="M62.28 81.94C59.46 81.94 56.82 80.18 55.84 77.38C54.6 73.83 56.47 69.93 60.02 68.69C61.74 68.09 63.59 68.19 65.23 68.98C66.87 69.77 68.11 71.15 68.71 72.87C69.95 76.42 68.08 80.32 64.53 81.56C63.79 81.82 63.03 81.94 62.28 81.94ZM62.28 70.56C61.77 70.56 61.26 70.65 60.77 70.82C58.4 71.65 57.15 74.25 57.98 76.62C58.81 78.99 61.41 80.24 63.78 79.41C66.15 78.58 67.4 75.98 66.57 73.61C66.17 72.46 65.34 71.54 64.25 71.01C63.63 70.71 62.95 70.56 62.28 70.56Z" fill="#FF2615"/>
<path d="M61.1801 71.9899C62.9001 71.3899 64.7901 72.2999 65.4001 74.0199C66.0001 75.7399 65.0901 77.6299 63.3701 78.2399C61.6501 78.8399 59.7601 77.9299 59.1501 76.2099C58.5401 74.4899 59.4601 72.5999 61.1801 71.9899ZM62.6901 76.2999C63.3501 76.0699 63.6901 75.3499 63.4601 74.6999C63.2301 74.0399 62.5101 73.6999 61.8601 73.9299C61.2101 74.1599 60.8601 74.8799 61.0901 75.5299C61.3201 76.1899 62.0401 76.5299 62.6901 76.2999Z" fill="#FF2615"/>
<path d="M45.74 87.62C43.83 87.62 42.02 86.85 40.72 85.45C40.04 84.72 38.91 83.81 37.37 83.63L35.76 83.44C34.23 83.26 32.91 83.87 32.08 84.42C30.36 85.56 28.22 85.85 26.22 85.22C23.65 84.41 21.77 82.07 21.53 79.39C21.35 77.3 22.09 75.27 23.57 73.84C25.05 72.4 27.08 71.71 29.13 71.96C30.75 72.15 32.25 72.92 33.35 74.12C34.27 75.12 35.51 75.76 36.84 75.92L38.08 76.07C39.41 76.23 40.77 75.9 41.89 75.14C43.24 74.23 44.88 73.83 46.5 74.03C48.55 74.27 50.36 75.41 51.46 77.16C52.56 78.9 52.81 81.05 52.15 83.04C51.29 85.59 48.91 87.42 46.23 87.61C46.06 87.62 45.9 87.63 45.73 87.63L45.74 87.62ZM35.21 81.14C35.49 81.14 35.76 81.16 36.03 81.19L37.64 81.38C39.4 81.59 41.03 82.46 42.38 83.91C43.32 84.92 44.67 85.45 46.08 85.34C47.86 85.22 49.44 84 50.01 82.31C50.47 80.95 50.31 79.55 49.56 78.37C48.82 77.21 47.62 76.45 46.25 76.28C45.17 76.15 44.08 76.41 43.18 77.02C41.6 78.08 39.7 78.54 37.83 78.32L36.59 78.17C34.72 77.95 32.98 77.05 31.69 75.65C30.96 74.85 29.96 74.34 28.88 74.21C27.52 74.05 26.16 74.5 25.17 75.46C24.17 76.43 23.68 77.76 23.81 79.19C23.97 80.96 25.22 82.52 26.92 83.06C28.27 83.48 29.7 83.29 30.85 82.53C32.24 81.61 33.74 81.14 35.22 81.14H35.21Z" fill="#FF2615"/>
<path d="M45.7199 87.62C45.4499 87.62 45.1699 87.6 44.8999 87.57C43.0899 87.36 41.4699 86.45 40.3499 85.02C39.2199 83.59 38.7199 81.8 38.9399 80C39.3799 76.26 42.7899 73.58 46.5199 74.03C48.3299 74.24 49.9499 75.15 51.0699 76.58C52.1999 78.01 52.6999 79.8 52.4799 81.61C52.2699 83.42 51.3599 85.04 49.9299 86.16C48.7199 87.12 47.2499 87.62 45.7199 87.62ZM45.6999 76.25C43.4299 76.25 41.4599 77.95 41.1799 80.26C41.0399 81.47 41.3699 82.66 42.1199 83.61C42.8699 84.56 43.9499 85.17 45.1599 85.31C47.6599 85.6 49.9199 83.82 50.2199 81.33C50.3599 80.12 50.0299 78.93 49.2799 77.98C48.5299 77.03 47.4499 76.42 46.2399 76.28C46.0599 76.26 45.8799 76.25 45.6999 76.25Z" fill="#FF2615"/>
<path d="M46.1 77.52C47.91 77.74 49.21 79.38 48.99 81.19C48.77 83 47.13 84.3 45.32 84.08C43.51 83.86 42.21 82.22 42.43 80.41C42.65 78.6 44.29 77.3 46.1 77.52ZM45.56 82.05C46.25 82.13 46.88 81.64 46.96 80.95C47.04 80.26 46.55 79.63 45.86 79.55C45.17 79.47 44.54 79.96 44.46 80.65C44.38 81.34 44.87 81.97 45.56 82.05Z" fill="#FF2615"/>
<path d="M28.3201 85.45C27.4101 85.45 26.4901 85.27 25.6401 84.89C23.7201 84.05 22.3001 82.42 21.7501 80.43C21.4901 79.47 20.9001 78.14 19.6301 77.27L18.2901 76.35C17.0201 75.48 15.5701 75.41 14.5801 75.52C12.5201 75.73 10.5001 75 9.02005 73.51C7.12005 71.6 6.54005 68.65 7.57005 66.17C8.38005 64.23 9.98005 62.78 11.9601 62.2C13.9401 61.61 16.0501 61.95 17.7501 63.11C19.1001 64.03 20.0701 65.41 20.4901 66.98C20.8401 68.29 21.6401 69.43 22.7501 70.19L23.7801 70.9C24.8901 71.66 26.2401 72 27.5901 71.85C29.2101 71.68 30.8401 72.08 32.1901 73C33.8901 74.17 34.9601 76.01 35.1301 78.07C35.3001 80.13 34.5301 82.14 33.0101 83.6C31.7401 84.81 30.0401 85.46 28.3201 85.46V85.45ZM15.2901 73.21C16.8901 73.21 18.3601 73.64 19.5801 74.48L20.9201 75.4C22.3801 76.4 23.4201 77.93 23.9501 79.84C24.3101 81.17 25.2701 82.26 26.5601 82.82C28.2001 83.54 30.1601 83.19 31.4501 81.96C32.4901 80.97 32.9901 79.65 32.8801 78.26C32.7701 76.89 32.0501 75.65 30.9201 74.87C30.0201 74.25 28.9301 73.98 27.8501 74.1C25.9601 74.31 24.0601 73.84 22.5101 72.77L21.4801 72.06C19.9201 70.99 18.8001 69.39 18.3101 67.56C18.0301 66.51 17.3801 65.59 16.4901 64.98C15.3501 64.2 13.9401 63.98 12.6201 64.37C11.2801 64.77 10.2401 65.71 9.68005 67.04C9.00005 68.68 9.38005 70.64 10.6401 71.91C11.6301 72.91 12.9901 73.41 14.3601 73.26C14.6801 73.23 14.9901 73.21 15.3001 73.21H15.2901Z" fill="#FF2615"/>
<path d="M28.3201 85.44C26.9601 85.44 25.6301 85.03 24.4801 84.24C21.3801 82.11 20.5801 77.86 22.7101 74.76C24.8401 71.66 29.0901 70.86 32.1901 72.99C35.2901 75.12 36.0901 79.37 33.9601 82.47C32.9301 83.97 31.3801 84.99 29.5901 85.32C29.1701 85.4 28.7401 85.44 28.3201 85.44ZM24.5801 76.04C23.8901 77.04 23.6401 78.25 23.8601 79.45C24.0801 80.64 24.7601 81.68 25.7601 82.37C26.7601 83.06 27.9701 83.31 29.1701 83.09C30.3701 82.87 31.4001 82.19 32.0901 81.19C33.5101 79.12 32.9801 76.28 30.9101 74.86C28.8401 73.44 26.0001 73.97 24.5801 76.04Z" fill="#FF2615"/>
<path d="M30.2 75.89C31.7 76.92 32.09 78.98 31.06 80.49C30.03 81.99 27.97 82.38 26.46 81.35C24.96 80.32 24.57 78.26 25.6 76.75C26.63 75.24 28.69 74.86 30.2 75.89ZM27.62 79.66C28.19 80.05 28.98 79.91 29.37 79.33C29.76 78.76 29.62 77.97 29.04 77.58C28.47 77.19 27.68 77.33 27.29 77.91C26.9 78.48 27.04 79.27 27.62 79.66Z" fill="#FF2615"/>
<path d="M13.82 75.56C11.62 75.56 9.47004 74.46 8.21004 72.6C7.03004 70.86 6.70004 68.73 7.30004 66.75C7.59004 65.8 7.81004 64.36 7.19004 62.94L6.55004 61.45C5.94004 60.03 4.75004 59.21 3.85004 58.76C2.00004 57.84 0.670042 56.14 0.210042 54.09C-0.379958 51.46 0.700042 48.65 2.90004 47.11C4.62004 45.9 6.74004 45.53 8.73004 46.09C10.72 46.65 12.33 48.06 13.15 49.95C13.8 51.45 13.89 53.13 13.4 54.69C12.99 55.98 13.06 57.38 13.6 58.61L14.09 59.76C14.62 60.99 15.59 62 16.81 62.59C18.28 63.3 19.44 64.52 20.09 66.02C20.91 67.91 20.83 70.05 19.88 71.88C18.93 73.71 17.2 75 15.14 75.42C14.7 75.51 14.26 75.55 13.82 75.55V75.56ZM2.43004 53.6C2.74004 54.98 3.62004 56.12 4.86004 56.73C6.63004 57.61 7.93004 58.93 8.63004 60.55L9.27004 62.04C9.97004 63.66 10.04 65.52 9.47004 67.41C9.07004 68.73 9.29004 70.16 10.09 71.32C11.09 72.8 12.94 73.55 14.68 73.2C16.09 72.91 17.22 72.07 17.86 70.83C18.5 69.61 18.55 68.18 18 66.92C17.57 65.92 16.79 65.11 15.81 64.63C14.1 63.8 12.75 62.39 12 60.65L11.51 59.5C10.76 57.77 10.66 55.81 11.23 54C11.55 52.96 11.5 51.84 11.06 50.84C10.51 49.58 9.44004 48.64 8.11004 48.26C6.76004 47.88 5.38004 48.13 4.20004 48.95C2.74004 49.98 2.03004 51.84 2.42004 53.58L2.43004 53.6Z" fill="#FF2615"/>
<path d="M13.8201 75.55C12.9701 75.55 12.1201 75.39 11.3001 75.07C9.6101 74.4 8.2801 73.11 7.5501 71.43C6.8301 69.76 6.8001 67.9 7.4701 66.21C8.1401 64.52 9.4301 63.19 11.1101 62.46C14.5601 60.97 18.5801 62.57 20.0801 66.02C20.8001 67.69 20.8301 69.55 20.1601 71.24C19.4901 72.93 18.2001 74.26 16.5201 74.99C15.6501 75.37 14.7401 75.55 13.8201 75.55ZM12.0101 64.55C10.8901 65.03 10.0301 65.92 9.5801 67.05C9.1301 68.18 9.1501 69.42 9.6301 70.53C10.1101 71.65 11.0001 72.51 12.1301 72.96C13.2601 73.41 14.5001 73.39 15.6101 72.91C16.7301 72.43 17.5901 71.54 18.0401 70.41C18.4901 69.28 18.4701 68.04 17.9901 66.93C16.9901 64.63 14.3101 63.56 12.0101 64.56V64.55Z" fill="#FF2615"/>
<path d="M16.8599 67.4101C17.5799 69.0801 16.8099 71.0301 15.1399 71.7601C13.4699 72.4801 11.5199 71.7101 10.7899 70.0401C10.0699 68.3701 10.8399 66.4201 12.5099 65.6901C14.1799 64.9601 16.1299 65.7401 16.8599 67.4101ZM12.6699 69.2201C12.9499 69.8601 13.6899 70.1501 14.3299 69.8801C14.9699 69.6001 15.2599 68.8601 14.9899 68.2201C14.7099 67.5801 13.9699 67.2901 13.3299 67.5601C12.6899 67.8401 12.3999 68.5801 12.6699 69.2201Z" fill="#FF2615"/>
<path d="M6.81999 59.44C6.33999 59.44 5.85999 59.39 5.37999 59.29C2.74999 58.74 0.63999 56.6 0.13999 53.95C-0.25001 51.89 0.28999 49.8 1.61999 48.22C2.25999 47.46 3.02999 46.23 3.02999 44.68V43.06C3.02999 41.52 2.25999 40.29 1.61999 39.53C0.27999 37.95 -0.26001 35.87 0.12999 33.8H0.11999C0.61999 31.15 2.71999 29 5.34999 28.45C7.40999 28.02 9.50999 28.52 11.11 29.82C12.71 31.12 13.63 33.05 13.63 35.12C13.63 36.75 13.05 38.33 11.98 39.57C11.09 40.6 10.61 41.91 10.61 43.25V44.5C10.61 45.84 11.1 47.15 11.99 48.18C13.05 49.41 13.64 50.99 13.64 52.63C13.64 54.69 12.72 56.62 11.12 57.93C9.88999 58.93 8.36999 59.46 6.80999 59.46L6.81999 59.44ZM2.34999 34.22C2.08999 35.61 2.44999 37 3.33999 38.06C4.61999 39.57 5.28999 41.29 5.28999 43.06V44.68C5.28999 46.45 4.61999 48.18 3.33999 49.69C2.44999 50.74 2.08999 52.14 2.34999 53.53C2.68999 55.29 4.07999 56.71 5.81999 57.07C7.21999 57.36 8.59999 57.04 9.67999 56.15C10.75 55.28 11.36 53.99 11.36 52.62C11.36 51.53 10.97 50.48 10.26 49.66C9.01999 48.22 8.33999 46.39 8.32999 44.5V43.25C8.32999 41.36 9.00999 39.53 10.25 38.09C10.96 37.27 11.35 36.21 11.35 35.13C11.35 33.75 10.74 32.47 9.66999 31.6C8.57999 30.72 7.20999 30.4 5.80999 30.69C4.06999 31.05 2.66999 32.48 2.33999 34.24L2.34999 34.22Z" fill="#FF2615"/>
<path d="M6.83 59.4399C3.07 59.4399 0 56.3799 0 52.6199C0 48.8599 3.06 45.7999 6.82 45.7999C10.58 45.7999 13.64 48.8599 13.64 52.6199C13.64 54.4399 12.93 56.1599 11.64 57.4399C10.35 58.7299 8.64 59.4399 6.82 59.4399H6.83ZM6.83 46.9299V48.0699C4.32 48.0699 2.28 50.1099 2.28 52.6199C2.28 55.1299 4.32 57.1699 6.83 57.1699C8.05 57.1699 9.19 56.6999 10.05 55.8399C10.91 54.9799 11.38 53.8399 11.38 52.6199C11.38 50.1099 9.34 48.0699 6.83 48.0699V46.9299Z" fill="#FF2615"/>
<path d="M10.13 52.6199C10.13 54.4399 8.65001 55.9299 6.82001 55.9299C5.00001 55.9299 3.51001 54.4499 3.51001 52.6199C3.51001 50.7999 4.99001 49.3099 6.82001 49.3099C8.65001 49.3099 10.13 50.7899 10.13 52.6199ZM5.56001 52.6199C5.56001 53.3099 6.13001 53.8799 6.82001 53.8799C7.51001 53.8799 8.08001 53.3099 8.08001 52.6199C8.08001 51.9299 7.51001 51.3599 6.82001 51.3599C6.13001 51.3599 5.56001 51.9299 5.56001 52.6199Z" fill="#FF2615"/>
</g>
<defs>
<clipPath id="clip0_14_1493">
<rect width="223.84" height="87.73" fill="white"/>
</clipPath>
</defs>
</svg>
